M48
;Layer_Color=9474304
;FILE_FORMAT=4:4
METRIC,LZ
;TYPE=PLATED
T1F00S00C0.5000
T2F00S00C0.6000
T3F00S00C0.8000
T4F00S00C1.0000
T5F00S00C1.2000
T6F00S00C3.2000
;TYPE=NON_PLATED
%
T01
X0001803Y0001803
X00011Y00035
X0001803Y00051971
X00035Y00059
X00051971Y00051971
X00059Y00035
X00051971Y0001803
X00035Y00011
X00067Y00007
X00076Y00016
X00095Y00007
X00106Y00016
X00125Y00007
X00136Y00016
X00121Y00046
X00136Y00076
X00106
X00121Y00106
X00091
X00061
X00076Y00136
X00016
X00003Y00122
Y0009
X00004Y00064
X00166Y00076
X00196
X00211Y00106
X00241
X00301
X00316Y00136
X00301Y00046
X00304Y00007
X00316Y00016
X00346
X00339Y00007
X00379
X00423Y00008
X00436Y00016
X00467Y00027
Y00032
Y00038
X00474
Y00032
Y00027
X00471Y00006
X0049803Y0001803
X00491Y00035
X0049803Y00051971
X00493Y00068
X00515Y00059
X00531971Y00051971
X00539Y00035
X00531971Y0001803
X00515Y00011
X00526Y00076
X00466
X00466Y00055
X00286Y00016
X00275Y00006
X00256Y00016
X00246Y00007
X00216
X00187
X00156
X00151Y00106
X00181
X00541
X00545Y00134
X00546Y00058
X00547Y00356
X00541Y00406
Y00466
Y00526
X00511
X00481
X00451
X00436Y00496
X00451Y00466
X00481
X00511
X00526Y00496
X00496
Y00436
X00526
X00511Y00406
X00526Y00376
X00489Y00374
X00492Y00349
X00511Y00346
X00528Y0032
X00496Y00316
X00474Y00298
Y00275
X00466Y00256
X00467Y00239
X00451Y00226
X00466Y00196
X00451Y00166
X00398Y00203
X00397Y00216
X00396Y00273
Y00288
X00385Y00313
X00391Y00346
X00421
X00436Y00376
X00406
X00376
X00361Y00346
X00331
X00301
X00316Y00376
X00332Y00389
X00333Y00401
X0031Y00409
X00291Y00405
X00261Y00417
X00248Y00405
X00236Y00402
X00231114Y0041556
X00232328Y00448329
X00244Y00456
X0024Y00484
X00262
X00256Y00496
X00264Y0051
X00296Y00511
X00286Y00496
X00283Y00476
X00316Y00496
X00329Y00468
Y00447
X00346Y00462
X00344Y00511
X00383Y00495
X00407Y00528
X00421Y00466
X00436Y00436
X00406
X00376
X0027Y0038
X00241Y00346
X00214Y00364
X00196Y00376
X00154Y00382
X00152Y00369
X00146Y00408
X00149947Y00428
X00154Y00458
X00146Y00474
X00160088Y00478598
X00161Y00492947
X00211Y00507
X00205Y00429
X00241Y00226
X00263Y00207
X00313Y00212
X00327
X00342
X00331Y00226
Y00286
X00361
X00365Y00265
X00451Y00286
X00436Y00316
X0052Y00285
Y0026
Y00241
X00364Y00157
X00211Y00166
X00136Y00256
Y00316
X00121Y00346
X00091
X00061
X00061Y00358
X00063Y00379
X00062Y00395
X00066Y00412
X00065Y00429
Y00444
X00076Y00436
X00046
X00021Y00465
X00068Y00499
X00107Y00513
X00124
X00138Y00539
X00136545Y00434912
X00112Y00412
X00114Y00383
X00094Y00397
X00031Y00346
X00003Y00355
Y0032
Y00272
Y0024
X00002Y00212
X00003Y00189
X00016Y00196
X00031Y00226
X00061
X00003Y00156
Y00586
Y00604
Y00627
X00014Y00631
X0001803Y00648029
X00011Y00665
X0001803Y00681971
X00035Y00689
X00051971Y00681971
X00059Y00665
X00051971Y00648029
X00035Y00641
X00062Y0063
X00059Y00574
X00041Y00573
X00027Y0059
X00079Y00558
X00095Y00566
X00108Y00553
X00109746Y00541
X00136Y00556
X00128Y00591
X00106Y00676
X00098Y00693
X00141
X00179
X00196Y00676
X00226
X00214Y00693
X00243
X00273
X00286Y00676
X00316
X00308Y00693
X00336
X00346Y00676
X00376
X0037Y00693
X00401
X00406Y00676
X00436
X00432Y00693
X00465
X00466Y00676
X00491Y00665
X0049803Y00648029
X00481Y00646
X00515Y00641
X00531971Y00648029
X00539Y00665
X00531971Y00681971
X00515Y00689
X0049803Y00681971
X00496Y00616
X00526
X00511Y00586
X00481
X00496Y00556
X00526
X00466
X00436
X00421Y00586
X00436Y00616
X00466
X00376
X00346
X00316
X00286
X00256
X00226
X00196
X00166
X00171Y00591
X0018Y00563
X00212Y00589
X00237
X00256Y00556
X00286
X00316
X00387Y00551
X00391Y00646
X00361
X00331
X00301
X00271
X00241
X00211
X00181
X00145Y00643
X00256Y00676
X00541Y00586
T02
X00492Y00206
X00504
T03
X00105Y00126
X00139Y00125
X00179
Y00148
Y0017
Y00198
X00139
Y0017
Y00148
X00105
Y0017
Y00198
X00103Y00259
Y00282
Y00304
Y00332
X00063
Y00304
Y00282
Y00259
X00029Y0026
Y00282
Y00304
Y00332
T04
X001607Y0053
X001861
X002115
X002369
X002623
X002877
X003131
X003385
X003639
X003893
X00018Y005347
Y005093
Y004839
Y004451
Y004197
Y003943
Y003689
Y005601
T05
X000926Y0005
X001434
X00457Y00592
Y00642
T06
X00035Y00035
X00515
X00035Y00665
X00515
M30
