G04*
G04 #@! TF.GenerationSoftware,Altium Limited,Altium Designer,22.3.1 (43)*
G04*
G04 Layer_Color=16711935*
%FSLAX44Y44*%
%MOMM*%
G71*
G04*
G04 #@! TF.SameCoordinates,0660A848-1A26-4927-BFA5-E7A76C088184*
G04*
G04*
G04 #@! TF.FilePolarity,Negative*
G04*
G01*
G75*
%ADD73C,6.2000*%
%ADD75O,1.1000X1.4000*%
%ADD76C,1.7032*%
%ADD77C,1.2032*%
%ADD80C,1.0032*%
%ADD107O,2.6032X3.2032*%
%ADD108O,2.4032X1.6032*%
%ADD109O,2.6032X2.2032*%
%ADD110O,1.6000X2.4000*%
D73*
X515000Y35000D02*
D03*
X35000D02*
D03*
X515000Y665000D02*
D03*
X35000D02*
D03*
D75*
X492000Y206000D02*
D03*
X504000D02*
D03*
D76*
X467000Y378000D02*
D03*
D77*
Y454000D02*
D03*
D80*
X531971Y51971D02*
D03*
X498030Y18030D02*
D03*
X539000Y35000D02*
D03*
X491000D02*
D03*
X531971Y18030D02*
D03*
X498030Y51971D02*
D03*
X515000Y59000D02*
D03*
Y11000D02*
D03*
X51971Y51971D02*
D03*
X18030Y18030D02*
D03*
X59000Y35000D02*
D03*
X11000D02*
D03*
X51971Y18030D02*
D03*
X18030Y51971D02*
D03*
X35000Y59000D02*
D03*
Y11000D02*
D03*
X531971Y681971D02*
D03*
X498030Y648029D02*
D03*
X539000Y665000D02*
D03*
X491000D02*
D03*
X531971Y648029D02*
D03*
X498030Y681971D02*
D03*
X515000Y689000D02*
D03*
Y641000D02*
D03*
X51971Y681971D02*
D03*
X18030Y648029D02*
D03*
X59000Y665000D02*
D03*
X11000D02*
D03*
X51971Y648029D02*
D03*
X18030Y681971D02*
D03*
X35000Y689000D02*
D03*
Y641000D02*
D03*
D107*
X143400Y50000D02*
D03*
X92600D02*
D03*
D108*
X18000Y445100D02*
D03*
Y419700D02*
D03*
Y394300D02*
D03*
Y368900D02*
D03*
Y560100D02*
D03*
Y534700D02*
D03*
Y509300D02*
D03*
Y483900D02*
D03*
D109*
X457000Y642000D02*
D03*
Y592000D02*
D03*
D110*
X160700Y530000D02*
D03*
X186100D02*
D03*
X211500D02*
D03*
X236900D02*
D03*
X262300D02*
D03*
X287700D02*
D03*
X313100D02*
D03*
X338500D02*
D03*
X363900D02*
D03*
X389300D02*
D03*
M02*
