G04*
G04 #@! TF.GenerationSoftware,Altium Limited,Altium Designer,22.3.1 (43)*
G04*
G04 Layer_Color=65535*
%FSLAX44Y44*%
%MOMM*%
G71*
G04*
G04 #@! TF.SameCoordinates,0660A848-1A26-4927-BFA5-E7A76C088184*
G04*
G04*
G04 #@! TF.FilePolarity,Positive*
G04*
G01*
G75*
%ADD10C,0.2000*%
%ADD11C,0.4000*%
%ADD12C,0.1524*%
%ADD13C,0.2500*%
%ADD14C,0.1500*%
%ADD15R,3.4000X0.5800*%
%ADD16R,1.8640X0.7620*%
%ADD17R,1.5240X0.4000*%
%ADD18R,0.6000X0.6000*%
%ADD19R,0.4000X1.5240*%
%ADD20R,2.8000X1.4000*%
G36*
X238047Y478009D02*
X234237D01*
Y480549D01*
X238047D01*
Y478009D01*
D02*
G37*
G36*
X325642Y472000D02*
Y461000D01*
X323642D01*
Y472000D01*
X313642D01*
Y461000D01*
X311642D01*
Y472000D01*
Y474000D01*
X325642D01*
Y472000D01*
D02*
G37*
G36*
Y446000D02*
X311642D01*
Y448000D01*
Y459000D01*
X313642D01*
Y448000D01*
X323642D01*
Y459000D01*
X325642D01*
Y446000D01*
D02*
G37*
G36*
X182633Y437595D02*
X180093D01*
Y441405D01*
X182633D01*
Y437595D01*
D02*
G37*
G36*
X287191Y432595D02*
X284651D01*
Y436405D01*
X287191D01*
Y432595D01*
D02*
G37*
G36*
X253047Y373451D02*
X249237D01*
Y375991D01*
X253047D01*
Y373451D01*
D02*
G37*
G36*
X395000Y135000D02*
Y123000D01*
X382000D01*
Y125000D01*
X393000D01*
Y135000D01*
X382000D01*
Y137000D01*
X395000D01*
Y135000D01*
D02*
G37*
G36*
X380000D02*
X369000D01*
Y125000D01*
X380000D01*
Y123000D01*
X367000D01*
Y135000D01*
Y137000D01*
X380000D01*
Y135000D01*
D02*
G37*
G36*
X395000Y120000D02*
Y108000D01*
X382000D01*
Y110000D01*
X393000D01*
Y120000D01*
X382000D01*
Y122000D01*
X395000D01*
Y120000D01*
D02*
G37*
G36*
X380000D02*
X369000D01*
Y110000D01*
X380000D01*
Y108000D01*
X367000D01*
Y120000D01*
Y122000D01*
X380000D01*
Y120000D01*
D02*
G37*
G36*
X462000Y47000D02*
Y36000D01*
X460000D01*
Y47000D01*
X450000D01*
Y36000D01*
X448000D01*
Y47000D01*
Y49000D01*
X462000D01*
Y47000D01*
D02*
G37*
G36*
X447000D02*
Y36000D01*
X445000D01*
Y47000D01*
X435000D01*
Y36000D01*
X433000D01*
Y47000D01*
Y49000D01*
X447000D01*
Y47000D01*
D02*
G37*
G36*
X462000Y21000D02*
X448000D01*
Y34000D01*
X450000D01*
Y23000D01*
X460000D01*
Y34000D01*
X462000D01*
Y21000D01*
D02*
G37*
G36*
X447000D02*
X433000D01*
Y23000D01*
Y34000D01*
X435000D01*
Y23000D01*
X445000D01*
Y34000D01*
X447000D01*
Y21000D01*
D02*
G37*
G36*
X56356Y699629D02*
X56458Y699620D01*
X56578Y699611D01*
X56698Y699592D01*
X56837Y699574D01*
X57133Y699509D01*
X57281Y699463D01*
X57428Y699416D01*
X57576Y699352D01*
X57715Y699278D01*
X57845Y699194D01*
X57965Y699102D01*
X57974Y699093D01*
X57992Y699074D01*
X58020Y699047D01*
X58057Y699010D01*
X58103Y698954D01*
X58159Y698889D01*
X58214Y698816D01*
X58279Y698732D01*
X58334Y698631D01*
X58390Y698529D01*
X58446Y698409D01*
X58492Y698279D01*
X58538Y698150D01*
X58575Y698002D01*
X58603Y697854D01*
X58612Y697688D01*
X57318Y697641D01*
Y697651D01*
Y697660D01*
X57299Y697725D01*
X57281Y697808D01*
X57243Y697909D01*
X57197Y698030D01*
X57133Y698140D01*
X57049Y698251D01*
X56957Y698344D01*
X56948Y698353D01*
X56911Y698381D01*
X56846Y698418D01*
X56754Y698455D01*
X56643Y698492D01*
X56504Y698529D01*
X56337Y698557D01*
X56143Y698566D01*
X56051D01*
X55949Y698557D01*
X55829Y698538D01*
X55690Y698510D01*
X55542Y698464D01*
X55404Y698409D01*
X55274Y698326D01*
X55265Y698316D01*
X55247Y698298D01*
X55209Y698270D01*
X55173Y698224D01*
X55135Y698168D01*
X55099Y698094D01*
X55080Y698020D01*
X55071Y697928D01*
Y697919D01*
Y697891D01*
X55080Y697845D01*
X55099Y697798D01*
X55117Y697734D01*
X55145Y697669D01*
X55191Y697604D01*
X55256Y697540D01*
X55265Y697530D01*
X55311Y697503D01*
X55339Y697484D01*
X55385Y697466D01*
X55431Y697438D01*
X55496Y697410D01*
X55570Y697382D01*
X55653Y697345D01*
X55755Y697308D01*
X55857Y697271D01*
X55986Y697234D01*
X56125Y697197D01*
X56273Y697160D01*
X56439Y697114D01*
X56448D01*
X56485Y697105D01*
X56532Y697096D01*
X56596Y697077D01*
X56670Y697059D01*
X56763Y697031D01*
X56865Y697003D01*
X56966Y696976D01*
X57188Y696902D01*
X57419Y696828D01*
X57641Y696745D01*
X57733Y696698D01*
X57826Y696652D01*
X57835D01*
X57845Y696643D01*
X57900Y696606D01*
X57983Y696550D01*
X58085Y696476D01*
X58196Y696384D01*
X58316Y696273D01*
X58436Y696143D01*
X58538Y695996D01*
X58547Y695977D01*
X58575Y695922D01*
X58621Y695838D01*
X58667Y695718D01*
X58714Y695570D01*
X58760Y695395D01*
X58787Y695200D01*
X58797Y694978D01*
Y694969D01*
Y694951D01*
Y694923D01*
Y694886D01*
X58787Y694840D01*
X58778Y694775D01*
X58760Y694646D01*
X58723Y694479D01*
X58667Y694304D01*
X58584Y694128D01*
X58482Y693943D01*
Y693934D01*
X58464Y693924D01*
X58427Y693869D01*
X58353Y693777D01*
X58260Y693675D01*
X58140Y693555D01*
X57983Y693444D01*
X57817Y693333D01*
X57613Y693231D01*
X57604D01*
X57586Y693222D01*
X57558Y693213D01*
X57512Y693194D01*
X57456Y693176D01*
X57392Y693157D01*
X57318Y693139D01*
X57234Y693120D01*
X57133Y693092D01*
X57031Y693074D01*
X56790Y693037D01*
X56522Y693009D01*
X56227Y693000D01*
X56106D01*
X56023Y693009D01*
X55921Y693018D01*
X55810Y693028D01*
X55681Y693046D01*
X55542Y693074D01*
X55237Y693139D01*
X55080Y693185D01*
X54932Y693231D01*
X54775Y693296D01*
X54627Y693370D01*
X54488Y693453D01*
X54359Y693555D01*
X54350Y693564D01*
X54331Y693583D01*
X54294Y693610D01*
X54257Y693656D01*
X54202Y693721D01*
X54146Y693795D01*
X54082Y693878D01*
X54017Y693971D01*
X53952Y694082D01*
X53887Y694202D01*
X53823Y694341D01*
X53758Y694489D01*
X53712Y694646D01*
X53656Y694821D01*
X53619Y695006D01*
X53591Y695200D01*
X54849Y695321D01*
Y695311D01*
X54858Y695293D01*
Y695256D01*
X54867Y695219D01*
X54904Y695108D01*
X54951Y694969D01*
X55006Y694812D01*
X55089Y694655D01*
X55182Y694516D01*
X55302Y694387D01*
X55320Y694378D01*
X55367Y694341D01*
X55441Y694294D01*
X55552Y694239D01*
X55690Y694183D01*
X55847Y694137D01*
X56032Y694100D01*
X56245Y694091D01*
X56347D01*
X56458Y694109D01*
X56596Y694128D01*
X56744Y694156D01*
X56901Y694202D01*
X57049Y694267D01*
X57179Y694350D01*
X57197Y694359D01*
X57234Y694396D01*
X57281Y694452D01*
X57345Y694526D01*
X57401Y694618D01*
X57456Y694729D01*
X57493Y694840D01*
X57502Y694969D01*
Y694978D01*
Y695006D01*
X57493Y695052D01*
X57484Y695108D01*
X57465Y695163D01*
X57447Y695228D01*
X57410Y695293D01*
X57364Y695358D01*
X57354Y695367D01*
X57336Y695385D01*
X57308Y695413D01*
X57262Y695450D01*
X57197Y695496D01*
X57114Y695543D01*
X57022Y695589D01*
X56901Y695635D01*
X56892D01*
X56855Y695654D01*
X56790Y695672D01*
X56744Y695691D01*
X56689Y695700D01*
X56624Y695718D01*
X56550Y695746D01*
X56467Y695764D01*
X56374Y695792D01*
X56263Y695820D01*
X56143Y695848D01*
X56014Y695885D01*
X55866Y695922D01*
X55857D01*
X55820Y695931D01*
X55764Y695949D01*
X55700Y695968D01*
X55616Y695996D01*
X55515Y696023D01*
X55413Y696060D01*
X55293Y696097D01*
X55052Y696190D01*
X54821Y696301D01*
X54701Y696356D01*
X54599Y696421D01*
X54498Y696486D01*
X54414Y696550D01*
X54405Y696560D01*
X54387Y696578D01*
X54359Y696606D01*
X54322Y696643D01*
X54276Y696698D01*
X54229Y696763D01*
X54174Y696828D01*
X54128Y696911D01*
X54017Y697105D01*
X53924Y697327D01*
X53887Y697447D01*
X53860Y697567D01*
X53841Y697706D01*
X53832Y697845D01*
Y697854D01*
Y697863D01*
Y697891D01*
Y697928D01*
X53850Y698020D01*
X53869Y698140D01*
X53897Y698279D01*
X53943Y698436D01*
X54008Y698603D01*
X54100Y698760D01*
Y698769D01*
X54109Y698779D01*
X54156Y698834D01*
X54211Y698908D01*
X54303Y699000D01*
X54414Y699102D01*
X54553Y699213D01*
X54710Y699315D01*
X54895Y699407D01*
X54904D01*
X54923Y699416D01*
X54951Y699426D01*
X54988Y699444D01*
X55043Y699463D01*
X55099Y699481D01*
X55173Y699500D01*
X55256Y699527D01*
X55441Y699564D01*
X55653Y699601D01*
X55894Y699629D01*
X56162Y699638D01*
X56273D01*
X56356Y699629D01*
D02*
G37*
G36*
X70483Y698436D02*
X68597D01*
Y693120D01*
X67303D01*
Y698436D01*
X65407D01*
Y699518D01*
X70483D01*
Y698436D01*
D02*
G37*
G36*
X64640D02*
X61191D01*
Y697022D01*
X64400D01*
Y695940D01*
X61191D01*
Y694202D01*
X64760D01*
Y693120D01*
X59897D01*
Y699518D01*
X64640D01*
Y698436D01*
D02*
G37*
G36*
X52713D02*
X49265D01*
Y697022D01*
X52473D01*
Y695940D01*
X49265D01*
Y694202D01*
X52833D01*
Y693120D01*
X47970D01*
Y699518D01*
X52713D01*
Y698436D01*
D02*
G37*
G36*
X44485Y699509D02*
X44586D01*
X44688Y699500D01*
X44808D01*
X45049Y699472D01*
X45298Y699444D01*
X45529Y699398D01*
X45631Y699370D01*
X45724Y699342D01*
X45733D01*
X45742Y699333D01*
X45798Y699305D01*
X45881Y699259D01*
X45992Y699204D01*
X46112Y699111D01*
X46232Y699010D01*
X46352Y698880D01*
X46463Y698723D01*
Y698714D01*
X46472Y698705D01*
X46491Y698677D01*
X46509Y698649D01*
X46556Y698557D01*
X46611Y698436D01*
X46657Y698288D01*
X46704Y698122D01*
X46740Y697928D01*
X46750Y697725D01*
Y697715D01*
Y697697D01*
Y697651D01*
X46740Y697604D01*
Y697540D01*
X46731Y697475D01*
X46694Y697308D01*
X46648Y697114D01*
X46574Y696920D01*
X46463Y696717D01*
X46398Y696624D01*
X46325Y696532D01*
X46315Y696523D01*
X46306Y696513D01*
X46278Y696486D01*
X46241Y696458D01*
X46204Y696421D01*
X46149Y696375D01*
X46084Y696328D01*
X46010Y696282D01*
X45927Y696227D01*
X45825Y696180D01*
X45724Y696134D01*
X45613Y696088D01*
X45483Y696042D01*
X45354Y696005D01*
X45215Y695968D01*
X45058Y695940D01*
X45067D01*
X45076Y695931D01*
X45132Y695894D01*
X45206Y695848D01*
X45298Y695783D01*
X45409Y695700D01*
X45520Y695617D01*
X45640Y695515D01*
X45742Y695404D01*
X45751Y695395D01*
X45798Y695348D01*
X45853Y695274D01*
X45936Y695163D01*
X46047Y695025D01*
X46103Y694932D01*
X46167Y694840D01*
X46241Y694738D01*
X46315Y694627D01*
X46398Y694498D01*
X46482Y694368D01*
X47267Y693120D01*
X45714D01*
X44790Y694507D01*
X44781Y694516D01*
X44771Y694544D01*
X44743Y694581D01*
X44707Y694627D01*
X44669Y694683D01*
X44623Y694757D01*
X44522Y694905D01*
X44401Y695071D01*
X44290Y695219D01*
X44189Y695358D01*
X44142Y695404D01*
X44106Y695450D01*
X44096Y695459D01*
X44078Y695478D01*
X44041Y695515D01*
X43995Y695561D01*
X43930Y695598D01*
X43865Y695644D01*
X43791Y695681D01*
X43717Y695718D01*
X43708D01*
X43680Y695727D01*
X43634Y695746D01*
X43560Y695755D01*
X43468Y695774D01*
X43357Y695783D01*
X43227Y695792D01*
X42811D01*
Y693120D01*
X41517D01*
Y699518D01*
X44401D01*
X44485Y699509D01*
D02*
G37*
G36*
X5619Y465555D02*
X5630D01*
X5655D01*
X5691D01*
X5739Y465567D01*
X5859Y465579D01*
X6027Y465603D01*
X6195Y465651D01*
X6387Y465723D01*
X6568Y465808D01*
X6724Y465928D01*
X6736Y465940D01*
X6784Y466000D01*
X6844Y466072D01*
X6916Y466180D01*
X6988Y466312D01*
X7048Y466480D01*
X7096Y466661D01*
X7108Y466853D01*
Y466913D01*
X7096Y466985D01*
X7084Y467069D01*
X7060Y467165D01*
X7024Y467273D01*
X6976Y467381D01*
X6904Y467477D01*
X6892Y467490D01*
X6868Y467526D01*
X6820Y467574D01*
X6748Y467622D01*
X6652Y467694D01*
X6544Y467754D01*
X6399Y467814D01*
X6243Y467874D01*
X6508Y469460D01*
X6520D01*
X6544Y469448D01*
X6592Y469424D01*
X6652Y469400D01*
X6724Y469364D01*
X6808Y469328D01*
X7000Y469220D01*
X7216Y469087D01*
X7445Y468919D01*
X7649Y468715D01*
X7841Y468487D01*
Y468475D01*
X7865Y468463D01*
X7877Y468415D01*
X7913Y468367D01*
X7949Y468307D01*
X7985Y468222D01*
X8021Y468138D01*
X8069Y468030D01*
X8153Y467790D01*
X8226Y467514D01*
X8274Y467189D01*
X8298Y466841D01*
Y466769D01*
X8286Y466697D01*
Y466589D01*
X8262Y466456D01*
X8238Y466300D01*
X8214Y466132D01*
X8166Y465964D01*
X8117Y465771D01*
X8045Y465579D01*
X7961Y465387D01*
X7865Y465195D01*
X7745Y465003D01*
X7613Y464822D01*
X7457Y464666D01*
X7276Y464510D01*
X7265Y464498D01*
X7240Y464486D01*
X7192Y464462D01*
X7132Y464414D01*
X7048Y464378D01*
X6952Y464330D01*
X6844Y464270D01*
X6712Y464222D01*
X6568Y464162D01*
X6411Y464114D01*
X6243Y464053D01*
X6051Y464017D01*
X5859Y463981D01*
X5655Y463945D01*
X5426Y463933D01*
X5198Y463921D01*
X5186D01*
X5138D01*
X5054D01*
X4946Y463933D01*
X4826Y463945D01*
X4681Y463957D01*
X4525Y463981D01*
X4345Y464017D01*
X3973Y464114D01*
X3780Y464174D01*
X3576Y464246D01*
X3384Y464342D01*
X3204Y464450D01*
X3023Y464570D01*
X2855Y464702D01*
X2843Y464714D01*
X2819Y464738D01*
X2771Y464786D01*
X2723Y464846D01*
X2663Y464919D01*
X2591Y465015D01*
X2507Y465123D01*
X2423Y465243D01*
X2351Y465375D01*
X2266Y465531D01*
X2194Y465687D01*
X2134Y465868D01*
X2086Y466048D01*
X2038Y466252D01*
X2014Y466456D01*
X2002Y466673D01*
Y466805D01*
X2014Y466901D01*
X2026Y467009D01*
X2050Y467141D01*
X2074Y467285D01*
X2110Y467441D01*
X2158Y467610D01*
X2218Y467778D01*
X2291Y467958D01*
X2387Y468138D01*
X2483Y468307D01*
X2603Y468475D01*
X2747Y468643D01*
X2903Y468787D01*
X2915Y468799D01*
X2939Y468823D01*
X2999Y468859D01*
X3072Y468907D01*
X3168Y468967D01*
X3276Y469027D01*
X3420Y469099D01*
X3576Y469171D01*
X3756Y469244D01*
X3961Y469316D01*
X4177Y469376D01*
X4429Y469436D01*
X4693Y469484D01*
X4982Y469520D01*
X5282Y469544D01*
X5619D01*
Y465555D01*
D02*
G37*
G36*
X8166Y461002D02*
Y459560D01*
X2134Y457133D01*
Y458803D01*
X5222Y459945D01*
X6243Y460269D01*
X6231Y460281D01*
X6183Y460293D01*
X6111Y460317D01*
X6039Y460341D01*
X5859Y460401D01*
X5787Y460425D01*
X5727Y460437D01*
X5715D01*
X5679Y460449D01*
X5630Y460461D01*
X5570Y460485D01*
X5402Y460533D01*
X5222Y460605D01*
X2134Y461759D01*
Y463393D01*
X8166Y461002D01*
D02*
G37*
G36*
Y454682D02*
X2134D01*
Y456280D01*
X8166D01*
Y454682D01*
D02*
G37*
G36*
X1329D02*
X-148D01*
Y456280D01*
X1329D01*
Y454682D01*
D02*
G37*
G36*
X8069Y453709D02*
X8081Y453697D01*
X8105Y453625D01*
X8141Y453505D01*
X8177Y453349D01*
X8226Y453169D01*
X8262Y452952D01*
X8286Y452712D01*
X8298Y452460D01*
Y452388D01*
X8286Y452304D01*
X8274Y452196D01*
X8262Y452075D01*
X8238Y451943D01*
X8202Y451811D01*
X8153Y451679D01*
X8141Y451667D01*
X8130Y451619D01*
X8093Y451559D01*
X8057Y451487D01*
X7937Y451318D01*
X7865Y451234D01*
X7781Y451162D01*
X7769Y451150D01*
X7733Y451138D01*
X7685Y451114D01*
X7613Y451078D01*
X7529Y451042D01*
X7421Y451006D01*
X7301Y450970D01*
X7168Y450946D01*
X7156D01*
X7108Y450934D01*
X7036D01*
X6916Y450922D01*
X6760Y450910D01*
X6568D01*
X6460Y450898D01*
X6327D01*
X6195D01*
X6039D01*
X3408D01*
Y450165D01*
X2134D01*
Y450898D01*
X933D01*
X-4Y452496D01*
X2134D01*
Y453589D01*
X3408D01*
Y452496D01*
X5847D01*
X5859D01*
X5883D01*
X5919D01*
X5967D01*
X6087D01*
X6231D01*
X6375Y452508D01*
X6520D01*
X6628D01*
X6676Y452520D01*
X6700D01*
X6724Y452532D01*
X6772Y452556D01*
X6832Y452592D01*
X6904Y452664D01*
X6916Y452688D01*
X6940Y452736D01*
X6964Y452820D01*
X6976Y452928D01*
Y452976D01*
X6964Y453024D01*
X6952Y453097D01*
X6940Y453193D01*
X6916Y453301D01*
X6880Y453433D01*
X6832Y453577D01*
X8069Y453721D01*
Y453709D01*
D02*
G37*
G36*
X5619Y445528D02*
X5630D01*
X5655D01*
X5691D01*
X5739Y445540D01*
X5859Y445552D01*
X6027Y445576D01*
X6195Y445624D01*
X6387Y445696D01*
X6568Y445780D01*
X6724Y445900D01*
X6736Y445912D01*
X6784Y445972D01*
X6844Y446044D01*
X6916Y446152D01*
X6988Y446284D01*
X7048Y446453D01*
X7096Y446633D01*
X7108Y446825D01*
Y446885D01*
X7096Y446957D01*
X7084Y447041D01*
X7060Y447137D01*
X7024Y447246D01*
X6976Y447354D01*
X6904Y447450D01*
X6892Y447462D01*
X6868Y447498D01*
X6820Y447546D01*
X6748Y447594D01*
X6652Y447666D01*
X6544Y447726D01*
X6399Y447786D01*
X6243Y447846D01*
X6508Y449432D01*
X6520D01*
X6544Y449420D01*
X6592Y449396D01*
X6652Y449372D01*
X6724Y449336D01*
X6808Y449300D01*
X7000Y449192D01*
X7216Y449060D01*
X7445Y448892D01*
X7649Y448687D01*
X7841Y448459D01*
Y448447D01*
X7865Y448435D01*
X7877Y448387D01*
X7913Y448339D01*
X7949Y448279D01*
X7985Y448195D01*
X8021Y448111D01*
X8069Y448003D01*
X8153Y447762D01*
X8226Y447486D01*
X8274Y447161D01*
X8298Y446813D01*
Y446741D01*
X8286Y446669D01*
Y446561D01*
X8262Y446429D01*
X8238Y446273D01*
X8214Y446104D01*
X8166Y445936D01*
X8117Y445744D01*
X8045Y445552D01*
X7961Y445359D01*
X7865Y445167D01*
X7745Y444975D01*
X7613Y444795D01*
X7457Y444638D01*
X7276Y444482D01*
X7265Y444470D01*
X7240Y444458D01*
X7192Y444434D01*
X7132Y444386D01*
X7048Y444350D01*
X6952Y444302D01*
X6844Y444242D01*
X6712Y444194D01*
X6568Y444134D01*
X6411Y444086D01*
X6243Y444026D01*
X6051Y443990D01*
X5859Y443954D01*
X5655Y443918D01*
X5426Y443906D01*
X5198Y443894D01*
X5186D01*
X5138D01*
X5054D01*
X4946Y443906D01*
X4826Y443918D01*
X4681Y443930D01*
X4525Y443954D01*
X4345Y443990D01*
X3973Y444086D01*
X3780Y444146D01*
X3576Y444218D01*
X3384Y444314D01*
X3204Y444422D01*
X3023Y444542D01*
X2855Y444675D01*
X2843Y444687D01*
X2819Y444711D01*
X2771Y444759D01*
X2723Y444819D01*
X2663Y444891D01*
X2591Y444987D01*
X2507Y445095D01*
X2423Y445215D01*
X2351Y445347D01*
X2266Y445504D01*
X2194Y445660D01*
X2134Y445840D01*
X2086Y446020D01*
X2038Y446224D01*
X2014Y446429D01*
X2002Y446645D01*
Y446777D01*
X2014Y446873D01*
X2026Y446981D01*
X2050Y447113D01*
X2074Y447258D01*
X2110Y447414D01*
X2158Y447582D01*
X2218Y447750D01*
X2291Y447930D01*
X2387Y448111D01*
X2483Y448279D01*
X2603Y448447D01*
X2747Y448615D01*
X2903Y448759D01*
X2915Y448771D01*
X2939Y448795D01*
X2999Y448831D01*
X3072Y448880D01*
X3168Y448940D01*
X3276Y449000D01*
X3420Y449072D01*
X3576Y449144D01*
X3756Y449216D01*
X3961Y449288D01*
X4177Y449348D01*
X4429Y449408D01*
X4693Y449456D01*
X4982Y449492D01*
X5282Y449516D01*
X5619D01*
Y445528D01*
D02*
G37*
G36*
X7913Y442764D02*
X8141Y442752D01*
X8406Y442728D01*
X8670Y442704D01*
X8922Y442656D01*
X9031Y442632D01*
X9139Y442596D01*
X9163Y442584D01*
X9223Y442560D01*
X9319Y442524D01*
X9439Y442464D01*
X9571Y442392D01*
X9715Y442308D01*
X9847Y442212D01*
X9968Y442091D01*
X9980Y442080D01*
X10016Y442032D01*
X10076Y441959D01*
X10136Y441875D01*
X10208Y441755D01*
X10292Y441611D01*
X10364Y441443D01*
X10436Y441250D01*
X10448Y441227D01*
X10460Y441154D01*
X10496Y441046D01*
X10520Y440890D01*
X10556Y440686D01*
X10592Y440458D01*
X10604Y440193D01*
X10616Y439905D01*
Y439761D01*
X10604Y439653D01*
Y439533D01*
X10592Y439388D01*
X10568Y439232D01*
X10544Y439064D01*
X10484Y438703D01*
X10388Y438343D01*
X10328Y438175D01*
X10256Y438007D01*
X10184Y437863D01*
X10088Y437730D01*
X10076Y437718D01*
X10064Y437706D01*
X9992Y437634D01*
X9883Y437526D01*
X9727Y437418D01*
X9535Y437298D01*
X9307Y437190D01*
X9043Y437118D01*
X8898Y437106D01*
X8754Y437094D01*
X8742D01*
X8694D01*
X8634D01*
X8562Y437106D01*
X8778Y438932D01*
X8790D01*
X8826Y438944D01*
X8886Y438956D01*
X8946Y438968D01*
X9091Y439028D01*
X9163Y439076D01*
X9211Y439136D01*
X9223Y439148D01*
X9235Y439184D01*
X9271Y439232D01*
X9295Y439316D01*
X9331Y439412D01*
X9367Y439533D01*
X9379Y439677D01*
X9391Y439845D01*
Y439953D01*
X9379Y440061D01*
X9367Y440193D01*
X9343Y440350D01*
X9307Y440506D01*
X9259Y440650D01*
X9199Y440782D01*
X9187Y440794D01*
X9175Y440818D01*
X9151Y440854D01*
X9103Y440902D01*
X9043Y440950D01*
X8971Y440998D01*
X8886Y441046D01*
X8790Y441094D01*
X8778D01*
X8754Y441106D01*
X8706Y441118D01*
X8622Y441142D01*
X8526Y441154D01*
X8406Y441166D01*
X8250Y441178D01*
X8069D01*
X7192D01*
X7204Y441166D01*
X7228Y441142D01*
X7276Y441106D01*
X7349Y441046D01*
X7421Y440986D01*
X7505Y440902D01*
X7589Y440794D01*
X7673Y440686D01*
X7769Y440566D01*
X7853Y440421D01*
X8009Y440121D01*
X8069Y439953D01*
X8117Y439773D01*
X8153Y439581D01*
X8166Y439376D01*
Y439328D01*
X8153Y439256D01*
Y439172D01*
X8130Y439076D01*
X8105Y438956D01*
X8081Y438824D01*
X8033Y438680D01*
X7985Y438535D01*
X7913Y438379D01*
X7829Y438211D01*
X7733Y438055D01*
X7613Y437899D01*
X7481Y437742D01*
X7325Y437598D01*
X7144Y437454D01*
X7132D01*
X7108Y437430D01*
X7060Y437406D01*
X7000Y437370D01*
X6916Y437322D01*
X6820Y437274D01*
X6712Y437226D01*
X6580Y437178D01*
X6447Y437130D01*
X6291Y437082D01*
X6123Y437034D01*
X5943Y436986D01*
X5558Y436925D01*
X5342Y436913D01*
X5126Y436901D01*
X5114D01*
X5054D01*
X4982D01*
X4874Y436913D01*
X4753Y436925D01*
X4609Y436937D01*
X4441Y436962D01*
X4273Y436997D01*
X3889Y437082D01*
X3696Y437142D01*
X3504Y437202D01*
X3324Y437286D01*
X3132Y437382D01*
X2963Y437490D01*
X2807Y437622D01*
X2795Y437634D01*
X2771Y437658D01*
X2735Y437694D01*
X2675Y437754D01*
X2615Y437826D01*
X2555Y437911D01*
X2483Y438007D01*
X2399Y438127D01*
X2327Y438247D01*
X2254Y438391D01*
X2122Y438691D01*
X2074Y438872D01*
X2038Y439052D01*
X2014Y439244D01*
X2002Y439436D01*
Y439484D01*
X2014Y439544D01*
Y439629D01*
X2038Y439713D01*
X2050Y439833D01*
X2086Y439953D01*
X2122Y440085D01*
X2182Y440229D01*
X2243Y440373D01*
X2327Y440530D01*
X2423Y440686D01*
X2531Y440842D01*
X2675Y440998D01*
X2819Y441142D01*
X2999Y441287D01*
X2134D01*
Y442776D01*
X7553D01*
X7565D01*
X7601D01*
X7649D01*
X7721D01*
X7817D01*
X7913Y442764D01*
D02*
G37*
G36*
X5619Y431964D02*
X5630D01*
X5655D01*
X5691D01*
X5739Y431976D01*
X5859Y431988D01*
X6027Y432012D01*
X6195Y432060D01*
X6387Y432132D01*
X6568Y432216D01*
X6724Y432336D01*
X6736Y432348D01*
X6784Y432408D01*
X6844Y432480D01*
X6916Y432588D01*
X6988Y432720D01*
X7048Y432889D01*
X7096Y433069D01*
X7108Y433261D01*
Y433321D01*
X7096Y433393D01*
X7084Y433477D01*
X7060Y433573D01*
X7024Y433682D01*
X6976Y433790D01*
X6904Y433886D01*
X6892Y433898D01*
X6868Y433934D01*
X6820Y433982D01*
X6748Y434030D01*
X6652Y434102D01*
X6544Y434162D01*
X6399Y434222D01*
X6243Y434282D01*
X6508Y435868D01*
X6520D01*
X6544Y435856D01*
X6592Y435832D01*
X6652Y435808D01*
X6724Y435772D01*
X6808Y435736D01*
X7000Y435628D01*
X7216Y435496D01*
X7445Y435327D01*
X7649Y435123D01*
X7841Y434895D01*
Y434883D01*
X7865Y434871D01*
X7877Y434823D01*
X7913Y434775D01*
X7949Y434715D01*
X7985Y434631D01*
X8021Y434547D01*
X8069Y434439D01*
X8153Y434198D01*
X8226Y433922D01*
X8274Y433597D01*
X8298Y433249D01*
Y433177D01*
X8286Y433105D01*
Y432997D01*
X8262Y432865D01*
X8238Y432708D01*
X8214Y432540D01*
X8166Y432372D01*
X8117Y432180D01*
X8045Y431988D01*
X7961Y431795D01*
X7865Y431603D01*
X7745Y431411D01*
X7613Y431231D01*
X7457Y431074D01*
X7276Y430918D01*
X7265Y430906D01*
X7240Y430894D01*
X7192Y430870D01*
X7132Y430822D01*
X7048Y430786D01*
X6952Y430738D01*
X6844Y430678D01*
X6712Y430630D01*
X6568Y430570D01*
X6411Y430522D01*
X6243Y430462D01*
X6051Y430426D01*
X5859Y430390D01*
X5655Y430354D01*
X5426Y430342D01*
X5198Y430330D01*
X5186D01*
X5138D01*
X5054D01*
X4946Y430342D01*
X4826Y430354D01*
X4681Y430366D01*
X4525Y430390D01*
X4345Y430426D01*
X3973Y430522D01*
X3780Y430582D01*
X3576Y430654D01*
X3384Y430750D01*
X3204Y430858D01*
X3023Y430978D01*
X2855Y431110D01*
X2843Y431123D01*
X2819Y431147D01*
X2771Y431195D01*
X2723Y431255D01*
X2663Y431327D01*
X2591Y431423D01*
X2507Y431531D01*
X2423Y431651D01*
X2351Y431783D01*
X2266Y431940D01*
X2194Y432096D01*
X2134Y432276D01*
X2086Y432456D01*
X2038Y432660D01*
X2014Y432865D01*
X2002Y433081D01*
Y433213D01*
X2014Y433309D01*
X2026Y433417D01*
X2050Y433549D01*
X2074Y433694D01*
X2110Y433850D01*
X2158Y434018D01*
X2218Y434186D01*
X2291Y434366D01*
X2387Y434547D01*
X2483Y434715D01*
X2603Y434883D01*
X2747Y435051D01*
X2903Y435195D01*
X2915Y435207D01*
X2939Y435231D01*
X2999Y435267D01*
X3072Y435316D01*
X3168Y435376D01*
X3276Y435436D01*
X3420Y435508D01*
X3576Y435580D01*
X3756Y435652D01*
X3961Y435724D01*
X4177Y435784D01*
X4429Y435844D01*
X4693Y435892D01*
X4982Y435928D01*
X5282Y435952D01*
X5619D01*
Y431964D01*
D02*
G37*
G36*
X8166Y427350D02*
X2687Y423974D01*
X8166D01*
Y422424D01*
X-148D01*
Y424046D01*
X5450Y427482D01*
X-148D01*
Y429032D01*
X8166D01*
Y427350D01*
D02*
G37*
G36*
X6803Y404952D02*
X6815D01*
X6839D01*
X6875D01*
X6923Y404964D01*
X7043Y404976D01*
X7211Y405000D01*
X7380Y405048D01*
X7572Y405120D01*
X7752Y405204D01*
X7908Y405324D01*
X7920Y405336D01*
X7968Y405396D01*
X8028Y405468D01*
X8100Y405577D01*
X8173Y405709D01*
X8233Y405877D01*
X8281Y406057D01*
X8293Y406249D01*
Y406310D01*
X8281Y406382D01*
X8269Y406466D01*
X8245Y406562D01*
X8209Y406670D01*
X8160Y406778D01*
X8088Y406874D01*
X8076Y406886D01*
X8052Y406922D01*
X8004Y406970D01*
X7932Y407018D01*
X7836Y407090D01*
X7728Y407150D01*
X7584Y407211D01*
X7428Y407271D01*
X7692Y408857D01*
X7704D01*
X7728Y408844D01*
X7776Y408820D01*
X7836Y408796D01*
X7908Y408760D01*
X7992Y408724D01*
X8184Y408616D01*
X8401Y408484D01*
X8629Y408316D01*
X8833Y408112D01*
X9025Y407883D01*
Y407871D01*
X9050Y407859D01*
X9062Y407811D01*
X9098Y407763D01*
X9134Y407703D01*
X9170Y407619D01*
X9206Y407535D01*
X9254Y407427D01*
X9338Y407187D01*
X9410Y406910D01*
X9458Y406586D01*
X9482Y406237D01*
Y406165D01*
X9470Y406093D01*
Y405985D01*
X9446Y405853D01*
X9422Y405697D01*
X9398Y405529D01*
X9350Y405360D01*
X9302Y405168D01*
X9230Y404976D01*
X9146Y404784D01*
X9050Y404591D01*
X8929Y404399D01*
X8797Y404219D01*
X8641Y404063D01*
X8461Y403907D01*
X8449Y403895D01*
X8425Y403883D01*
X8377Y403859D01*
X8317Y403811D01*
X8233Y403774D01*
X8137Y403726D01*
X8028Y403666D01*
X7896Y403618D01*
X7752Y403558D01*
X7596Y403510D01*
X7428Y403450D01*
X7235Y403414D01*
X7043Y403378D01*
X6839Y403342D01*
X6611Y403330D01*
X6382Y403318D01*
X6370D01*
X6322D01*
X6238D01*
X6130Y403330D01*
X6010Y403342D01*
X5866Y403354D01*
X5710Y403378D01*
X5529Y403414D01*
X5157Y403510D01*
X4965Y403570D01*
X4760Y403642D01*
X4568Y403738D01*
X4388Y403847D01*
X4208Y403967D01*
X4040Y404099D01*
X4028Y404111D01*
X4004Y404135D01*
X3956Y404183D01*
X3907Y404243D01*
X3847Y404315D01*
X3775Y404411D01*
X3691Y404519D01*
X3607Y404640D01*
X3535Y404772D01*
X3451Y404928D01*
X3379Y405084D01*
X3319Y405264D01*
X3271Y405444D01*
X3223Y405649D01*
X3199Y405853D01*
X3187Y406069D01*
Y406201D01*
X3199Y406297D01*
X3211Y406406D01*
X3235Y406538D01*
X3259Y406682D01*
X3295Y406838D01*
X3343Y407006D01*
X3403Y407174D01*
X3475Y407355D01*
X3571Y407535D01*
X3667Y407703D01*
X3787Y407871D01*
X3932Y408040D01*
X4088Y408184D01*
X4100Y408196D01*
X4124Y408220D01*
X4184Y408256D01*
X4256Y408304D01*
X4352Y408364D01*
X4460Y408424D01*
X4604Y408496D01*
X4760Y408568D01*
X4941Y408640D01*
X5145Y408712D01*
X5361Y408772D01*
X5613Y408833D01*
X5878Y408881D01*
X6166Y408917D01*
X6467Y408941D01*
X6803D01*
Y404952D01*
D02*
G37*
G36*
X9350Y400398D02*
Y398957D01*
X3319Y396530D01*
Y398200D01*
X6406Y399341D01*
X7428Y399666D01*
X7416Y399678D01*
X7368Y399690D01*
X7296Y399714D01*
X7223Y399738D01*
X7043Y399798D01*
X6971Y399822D01*
X6911Y399834D01*
X6899D01*
X6863Y399846D01*
X6815Y399858D01*
X6755Y399882D01*
X6587Y399930D01*
X6406Y400002D01*
X3319Y401155D01*
Y402789D01*
X9350Y400398D01*
D02*
G37*
G36*
Y394079D02*
X3319D01*
Y395677D01*
X9350D01*
Y394079D01*
D02*
G37*
G36*
X2514D02*
X1036D01*
Y395677D01*
X2514D01*
Y394079D01*
D02*
G37*
G36*
X9254Y393106D02*
X9266Y393094D01*
X9290Y393022D01*
X9326Y392902D01*
X9362Y392745D01*
X9410Y392565D01*
X9446Y392349D01*
X9470Y392109D01*
X9482Y391856D01*
Y391784D01*
X9470Y391700D01*
X9458Y391592D01*
X9446Y391472D01*
X9422Y391340D01*
X9386Y391208D01*
X9338Y391076D01*
X9326Y391063D01*
X9314Y391015D01*
X9278Y390955D01*
X9242Y390883D01*
X9122Y390715D01*
X9050Y390631D01*
X8965Y390559D01*
X8953Y390547D01*
X8917Y390535D01*
X8869Y390511D01*
X8797Y390475D01*
X8713Y390439D01*
X8605Y390403D01*
X8485Y390367D01*
X8353Y390343D01*
X8341D01*
X8293Y390331D01*
X8221D01*
X8100Y390319D01*
X7944Y390307D01*
X7752D01*
X7644Y390294D01*
X7512D01*
X7380D01*
X7223D01*
X4592D01*
Y389562D01*
X3319D01*
Y390294D01*
X2117D01*
X1180Y391892D01*
X3319D01*
Y392986D01*
X4592D01*
Y391892D01*
X7031D01*
X7043D01*
X7067D01*
X7103D01*
X7151D01*
X7272D01*
X7416D01*
X7560Y391904D01*
X7704D01*
X7812D01*
X7860Y391917D01*
X7884D01*
X7908Y391928D01*
X7956Y391953D01*
X8016Y391988D01*
X8088Y392061D01*
X8100Y392085D01*
X8124Y392133D01*
X8148Y392217D01*
X8160Y392325D01*
Y392373D01*
X8148Y392421D01*
X8137Y392493D01*
X8124Y392589D01*
X8100Y392697D01*
X8064Y392830D01*
X8016Y392974D01*
X9254Y393118D01*
Y393106D01*
D02*
G37*
G36*
X6803Y384924D02*
X6815D01*
X6839D01*
X6875D01*
X6923Y384936D01*
X7043Y384948D01*
X7211Y384972D01*
X7380Y385020D01*
X7572Y385092D01*
X7752Y385177D01*
X7908Y385297D01*
X7920Y385309D01*
X7968Y385369D01*
X8028Y385441D01*
X8100Y385549D01*
X8173Y385681D01*
X8233Y385849D01*
X8281Y386030D01*
X8293Y386222D01*
Y386282D01*
X8281Y386354D01*
X8269Y386438D01*
X8245Y386534D01*
X8209Y386642D01*
X8160Y386750D01*
X8088Y386847D01*
X8076Y386858D01*
X8052Y386894D01*
X8004Y386943D01*
X7932Y386991D01*
X7836Y387063D01*
X7728Y387123D01*
X7584Y387183D01*
X7428Y387243D01*
X7692Y388829D01*
X7704D01*
X7728Y388817D01*
X7776Y388793D01*
X7836Y388769D01*
X7908Y388733D01*
X7992Y388697D01*
X8184Y388588D01*
X8401Y388456D01*
X8629Y388288D01*
X8833Y388084D01*
X9025Y387856D01*
Y387844D01*
X9050Y387832D01*
X9062Y387784D01*
X9098Y387735D01*
X9134Y387676D01*
X9170Y387591D01*
X9206Y387507D01*
X9254Y387399D01*
X9338Y387159D01*
X9410Y386883D01*
X9458Y386558D01*
X9482Y386210D01*
Y386138D01*
X9470Y386065D01*
Y385957D01*
X9446Y385825D01*
X9422Y385669D01*
X9398Y385501D01*
X9350Y385333D01*
X9302Y385140D01*
X9230Y384948D01*
X9146Y384756D01*
X9050Y384564D01*
X8929Y384371D01*
X8797Y384191D01*
X8641Y384035D01*
X8461Y383879D01*
X8449Y383867D01*
X8425Y383855D01*
X8377Y383831D01*
X8317Y383783D01*
X8233Y383747D01*
X8137Y383699D01*
X8028Y383639D01*
X7896Y383591D01*
X7752Y383531D01*
X7596Y383483D01*
X7428Y383422D01*
X7235Y383386D01*
X7043Y383350D01*
X6839Y383314D01*
X6611Y383302D01*
X6382Y383290D01*
X6370D01*
X6322D01*
X6238D01*
X6130Y383302D01*
X6010Y383314D01*
X5866Y383326D01*
X5710Y383350D01*
X5529Y383386D01*
X5157Y383483D01*
X4965Y383543D01*
X4760Y383615D01*
X4568Y383711D01*
X4388Y383819D01*
X4208Y383939D01*
X4040Y384071D01*
X4028Y384083D01*
X4004Y384107D01*
X3956Y384155D01*
X3907Y384215D01*
X3847Y384287D01*
X3775Y384384D01*
X3691Y384492D01*
X3607Y384612D01*
X3535Y384744D01*
X3451Y384900D01*
X3379Y385056D01*
X3319Y385237D01*
X3271Y385417D01*
X3223Y385621D01*
X3199Y385825D01*
X3187Y386041D01*
Y386174D01*
X3199Y386270D01*
X3211Y386378D01*
X3235Y386510D01*
X3259Y386654D01*
X3295Y386810D01*
X3343Y386979D01*
X3403Y387147D01*
X3475Y387327D01*
X3571Y387507D01*
X3667Y387676D01*
X3787Y387844D01*
X3932Y388012D01*
X4088Y388156D01*
X4100Y388168D01*
X4124Y388192D01*
X4184Y388228D01*
X4256Y388276D01*
X4352Y388336D01*
X4460Y388396D01*
X4604Y388468D01*
X4760Y388540D01*
X4941Y388613D01*
X5145Y388685D01*
X5361Y388745D01*
X5613Y388805D01*
X5878Y388853D01*
X6166Y388889D01*
X6467Y388913D01*
X6803D01*
Y384924D01*
D02*
G37*
G36*
X7608Y382341D02*
X7668Y382329D01*
X7752Y382317D01*
X7956Y382269D01*
X8173Y382185D01*
X8293Y382125D01*
X8413Y382065D01*
X8533Y381981D01*
X8653Y381885D01*
X8773Y381777D01*
X8893Y381656D01*
X8905Y381644D01*
X8917Y381620D01*
X8941Y381584D01*
X8989Y381524D01*
X9025Y381452D01*
X9074Y381368D01*
X9134Y381260D01*
X9182Y381140D01*
X9242Y381008D01*
X9290Y380851D01*
X9350Y380683D01*
X9386Y380503D01*
X9422Y380299D01*
X9458Y380083D01*
X9470Y379854D01*
X9482Y379614D01*
Y379494D01*
X9470Y379410D01*
Y379302D01*
X9458Y379181D01*
X9446Y379049D01*
X9422Y378905D01*
X9362Y378593D01*
X9278Y378268D01*
X9158Y377944D01*
X9074Y377800D01*
X8989Y377656D01*
X8978Y377644D01*
X8965Y377620D01*
X8941Y377584D01*
X8893Y377547D01*
X8785Y377415D01*
X8629Y377271D01*
X8437Y377115D01*
X8209Y376971D01*
X7932Y376839D01*
X7632Y376730D01*
X7392Y378328D01*
X7416D01*
X7464Y378352D01*
X7548Y378377D01*
X7656Y378413D01*
X7776Y378473D01*
X7884Y378545D01*
X8004Y378629D01*
X8100Y378737D01*
X8112Y378749D01*
X8137Y378797D01*
X8173Y378869D01*
X8209Y378965D01*
X8257Y379085D01*
X8293Y379241D01*
X8317Y379410D01*
X8329Y379614D01*
Y379710D01*
X8317Y379830D01*
X8305Y379962D01*
X8281Y380107D01*
X8233Y380263D01*
X8184Y380407D01*
X8112Y380539D01*
X8100Y380551D01*
X8076Y380575D01*
X8040Y380611D01*
X7992Y380647D01*
X7932Y380683D01*
X7860Y380719D01*
X7776Y380743D01*
X7680Y380755D01*
X7668D01*
X7644D01*
X7572Y380743D01*
X7476Y380707D01*
X7380Y380635D01*
X7356Y380611D01*
X7344Y380575D01*
X7308Y380527D01*
X7283Y380455D01*
X7247Y380359D01*
X7211Y380251D01*
X7175Y380107D01*
Y380083D01*
X7151Y380022D01*
X7127Y379926D01*
X7103Y379794D01*
X7067Y379638D01*
X7019Y379470D01*
X6971Y379277D01*
X6911Y379073D01*
X6791Y378653D01*
X6731Y378448D01*
X6659Y378256D01*
X6599Y378076D01*
X6527Y377908D01*
X6454Y377764D01*
X6394Y377656D01*
X6382Y377644D01*
X6370Y377620D01*
X6346Y377595D01*
X6298Y377547D01*
X6190Y377427D01*
X6034Y377307D01*
X5842Y377175D01*
X5613Y377055D01*
X5481Y377007D01*
X5337Y376983D01*
X5193Y376959D01*
X5037Y376947D01*
X5025D01*
X5001D01*
X4965D01*
X4905Y376959D01*
X4845Y376971D01*
X4760Y376983D01*
X4580Y377019D01*
X4376Y377091D01*
X4160Y377211D01*
X4040Y377271D01*
X3932Y377355D01*
X3823Y377451D01*
X3727Y377560D01*
X3715Y377571D01*
X3703Y377584D01*
X3679Y377620D01*
X3643Y377680D01*
X3607Y377740D01*
X3559Y377824D01*
X3511Y377920D01*
X3451Y378028D01*
X3403Y378160D01*
X3355Y378304D01*
X3307Y378461D01*
X3271Y378629D01*
X3235Y378821D01*
X3211Y379025D01*
X3187Y379241D01*
Y379686D01*
X3199Y379782D01*
X3211Y379902D01*
X3223Y380034D01*
X3235Y380179D01*
X3283Y380479D01*
X3355Y380779D01*
X3463Y381068D01*
X3523Y381200D01*
X3595Y381320D01*
Y381332D01*
X3619Y381344D01*
X3667Y381416D01*
X3763Y381524D01*
X3896Y381644D01*
X4052Y381788D01*
X4256Y381921D01*
X4496Y382053D01*
X4773Y382149D01*
X5049Y380647D01*
X5037D01*
X4989Y380623D01*
X4929Y380599D01*
X4857Y380563D01*
X4760Y380515D01*
X4676Y380443D01*
X4592Y380371D01*
X4520Y380275D01*
X4508Y380263D01*
X4484Y380227D01*
X4460Y380167D01*
X4424Y380083D01*
X4388Y379974D01*
X4352Y379842D01*
X4340Y379686D01*
X4328Y379506D01*
Y379398D01*
X4340Y379290D01*
X4352Y379157D01*
X4376Y379001D01*
X4400Y378857D01*
X4448Y378725D01*
X4508Y378605D01*
Y378593D01*
X4532Y378581D01*
X4592Y378521D01*
X4700Y378448D01*
X4760Y378437D01*
X4833Y378424D01*
X4845D01*
X4857D01*
X4929Y378448D01*
X5025Y378497D01*
X5073Y378533D01*
X5121Y378581D01*
X5133Y378593D01*
X5145Y378641D01*
X5169Y378665D01*
X5181Y378713D01*
X5205Y378773D01*
X5241Y378845D01*
X5265Y378941D01*
X5301Y379037D01*
X5337Y379157D01*
X5373Y379302D01*
X5421Y379458D01*
X5469Y379638D01*
X5517Y379842D01*
X5577Y380070D01*
Y380083D01*
X5590Y380131D01*
X5602Y380191D01*
X5626Y380275D01*
X5662Y380383D01*
X5686Y380503D01*
X5770Y380767D01*
X5878Y381068D01*
X5998Y381356D01*
X6070Y381500D01*
X6130Y381632D01*
X6214Y381740D01*
X6286Y381849D01*
X6310Y381873D01*
X6358Y381933D01*
X6454Y382005D01*
X6587Y382101D01*
X6755Y382197D01*
X6959Y382269D01*
X7199Y382329D01*
X7464Y382353D01*
X7476D01*
X7500D01*
X7548D01*
X7608Y382341D01*
D02*
G37*
G36*
X6551Y376034D02*
X6671Y376022D01*
X6803Y375998D01*
X6959Y375974D01*
X7115Y375938D01*
X7296Y375890D01*
X7476Y375829D01*
X7668Y375757D01*
X7860Y375673D01*
X8052Y375565D01*
X8233Y375445D01*
X8413Y375313D01*
X8593Y375157D01*
X8605Y375145D01*
X8629Y375121D01*
X8677Y375073D01*
X8737Y375000D01*
X8797Y374916D01*
X8869Y374808D01*
X8953Y374688D01*
X9038Y374556D01*
X9122Y374400D01*
X9206Y374232D01*
X9278Y374051D01*
X9338Y373847D01*
X9398Y373643D01*
X9446Y373415D01*
X9470Y373186D01*
X9482Y372934D01*
Y372850D01*
X9470Y372790D01*
Y372718D01*
X9458Y372634D01*
X9434Y372429D01*
X9386Y372177D01*
X9326Y371913D01*
X9230Y371637D01*
X9110Y371348D01*
Y371336D01*
X9098Y371312D01*
X9074Y371276D01*
X9038Y371228D01*
X8953Y371096D01*
X8833Y370928D01*
X8677Y370747D01*
X8485Y370555D01*
X8269Y370375D01*
X8016Y370207D01*
X8004D01*
X7980Y370195D01*
X7944Y370171D01*
X7884Y370147D01*
X7812Y370123D01*
X7728Y370087D01*
X7632Y370051D01*
X7524Y370015D01*
X7404Y369978D01*
X7272Y369943D01*
X6971Y369882D01*
X6623Y369834D01*
X6250Y369822D01*
X6238D01*
X6214D01*
X6166D01*
X6118Y369834D01*
X6046D01*
X5962Y369846D01*
X5758Y369870D01*
X5529Y369919D01*
X5277Y369991D01*
X5001Y370075D01*
X4724Y370207D01*
X4712D01*
X4688Y370231D01*
X4652Y370243D01*
X4604Y370279D01*
X4472Y370375D01*
X4304Y370495D01*
X4124Y370651D01*
X3932Y370844D01*
X3751Y371060D01*
X3583Y371312D01*
Y371324D01*
X3571Y371348D01*
X3547Y371384D01*
X3523Y371444D01*
X3487Y371504D01*
X3463Y371588D01*
X3427Y371685D01*
X3379Y371781D01*
X3307Y372021D01*
X3247Y372297D01*
X3199Y372598D01*
X3187Y372922D01*
Y373054D01*
X3199Y373150D01*
X3211Y373270D01*
X3235Y373403D01*
X3259Y373559D01*
X3295Y373715D01*
X3343Y373895D01*
X3403Y374075D01*
X3475Y374256D01*
X3559Y374448D01*
X3667Y374640D01*
X3787Y374820D01*
X3920Y375000D01*
X4076Y375169D01*
X4088Y375181D01*
X4112Y375205D01*
X4172Y375253D01*
X4232Y375301D01*
X4328Y375373D01*
X4424Y375445D01*
X4556Y375529D01*
X4688Y375613D01*
X4845Y375685D01*
X5013Y375769D01*
X5205Y375841D01*
X5397Y375914D01*
X5613Y375962D01*
X5830Y376010D01*
X6070Y376034D01*
X6322Y376046D01*
X6334D01*
X6382D01*
X6454D01*
X6551Y376034D01*
D02*
G37*
G36*
X3787Y368813D02*
X3871D01*
X4040Y368789D01*
X4244Y368753D01*
X4472Y368705D01*
X4688Y368633D01*
X4893Y368537D01*
X4917Y368525D01*
X4977Y368489D01*
X5073Y368429D01*
X5193Y368345D01*
X5313Y368248D01*
X5457Y368116D01*
X5590Y367984D01*
X5710Y367828D01*
X5722Y367804D01*
X5758Y367756D01*
X5806Y367672D01*
X5866Y367564D01*
X5938Y367431D01*
X5998Y367287D01*
X6058Y367131D01*
X6106Y366963D01*
Y366939D01*
X6118Y366903D01*
Y366855D01*
X6130Y366795D01*
X6142Y366711D01*
X6154Y366627D01*
Y366518D01*
X6166Y366410D01*
X6178Y366278D01*
X6190Y366134D01*
X6202Y365978D01*
Y365810D01*
X6214Y365629D01*
Y364140D01*
X9350D01*
Y362458D01*
X1036D01*
Y365521D01*
X1048Y365653D01*
Y365966D01*
X1072Y366302D01*
X1096Y366639D01*
X1108Y366783D01*
X1120Y366927D01*
X1144Y367047D01*
X1168Y367143D01*
Y367155D01*
X1180Y367179D01*
X1192Y367215D01*
X1204Y367263D01*
X1264Y367396D01*
X1336Y367564D01*
X1445Y367744D01*
X1589Y367948D01*
X1769Y368140D01*
X1985Y368333D01*
X1997D01*
X2009Y368357D01*
X2045Y368381D01*
X2093Y368405D01*
X2165Y368453D01*
X2237Y368489D01*
X2322Y368537D01*
X2418Y368585D01*
X2658Y368669D01*
X2922Y368753D01*
X3247Y368801D01*
X3595Y368825D01*
X3607D01*
X3631D01*
X3667D01*
X3727D01*
X3787Y368813D01*
D02*
G37*
G36*
X212816Y602182D02*
X206847D01*
X206800Y627357D01*
X200506Y602182D01*
X194259D01*
X187965Y627357D01*
Y602182D01*
X181995D01*
Y634207D01*
X191667D01*
X197406Y612317D01*
X203098Y634207D01*
X212816D01*
Y602182D01*
D02*
G37*
G36*
X274691Y617315D02*
Y617268D01*
Y617083D01*
Y616759D01*
Y616389D01*
Y615927D01*
X274645Y615371D01*
Y614770D01*
Y614168D01*
X274552Y612826D01*
X274460Y611437D01*
X274414Y610836D01*
X274321Y610234D01*
X274228Y609679D01*
X274136Y609170D01*
Y609123D01*
X274090Y609077D01*
Y608938D01*
X274043Y608800D01*
X273904Y608337D01*
X273719Y607781D01*
X273442Y607133D01*
X273118Y606486D01*
X272701Y605791D01*
X272192Y605144D01*
X272146Y605051D01*
X271961Y604866D01*
X271637Y604588D01*
X271220Y604218D01*
X270665Y603801D01*
X270017Y603385D01*
X269277Y602922D01*
X268444Y602552D01*
X268397D01*
X268351Y602506D01*
X268212Y602459D01*
X268027Y602413D01*
X267796Y602321D01*
X267518Y602228D01*
X267148Y602135D01*
X266777Y602089D01*
X265898Y601904D01*
X264834Y601719D01*
X263631Y601626D01*
X262288Y601580D01*
X261548D01*
X261131Y601626D01*
X260715D01*
X260206Y601673D01*
X259697Y601719D01*
X258586Y601811D01*
X257429Y601996D01*
X256272Y602274D01*
X255763Y602413D01*
X255300Y602598D01*
X255254D01*
X255208Y602644D01*
X254930Y602783D01*
X254467Y603015D01*
X253958Y603339D01*
X253357Y603755D01*
X252709Y604218D01*
X252107Y604773D01*
X251552Y605375D01*
X251506Y605467D01*
X251320Y605653D01*
X251089Y606023D01*
X250811Y606486D01*
X250534Y606995D01*
X250210Y607596D01*
X249978Y608244D01*
X249747Y608938D01*
Y608985D01*
X249701Y609077D01*
Y609216D01*
X249654Y609447D01*
X249608Y609725D01*
X249562Y610095D01*
X249515Y610512D01*
X249469Y610975D01*
X249377Y611530D01*
X249330Y612132D01*
X249284Y612780D01*
X249238Y613520D01*
X249192Y614307D01*
Y615186D01*
X249145Y616111D01*
Y617083D01*
Y634207D01*
X255624Y634207D01*
Y616806D01*
Y616759D01*
Y616621D01*
Y616436D01*
Y616158D01*
Y615788D01*
Y615417D01*
X255671Y614584D01*
Y613659D01*
X255717Y612780D01*
X255763Y612363D01*
Y611993D01*
X255809Y611715D01*
X255856Y611437D01*
Y611345D01*
X255948Y611114D01*
X256087Y610743D01*
X256272Y610280D01*
X256504Y609771D01*
X256874Y609262D01*
X257290Y608707D01*
X257799Y608244D01*
X257892Y608198D01*
X258077Y608059D01*
X258447Y607874D01*
X258910Y607689D01*
X259558Y607457D01*
X260299Y607272D01*
X261131Y607133D01*
X262103Y607087D01*
X262566D01*
X263029Y607133D01*
X263631Y607226D01*
X264325Y607365D01*
X264973Y607550D01*
X265667Y607828D01*
X266222Y608198D01*
X266269Y608244D01*
X266454Y608383D01*
X266685Y608614D01*
X266963Y608938D01*
X267240Y609355D01*
X267518Y609818D01*
X267749Y610327D01*
X267888Y610928D01*
Y611021D01*
X267934Y611252D01*
X267981Y611669D01*
X268073Y612224D01*
Y612594D01*
X268120Y613011D01*
Y613474D01*
X268166Y613937D01*
Y614492D01*
X268212Y615093D01*
Y615741D01*
Y616436D01*
Y634207D01*
X274691D01*
Y617315D01*
D02*
G37*
G36*
X290380Y634345D02*
X290750D01*
X291166Y634299D01*
X291629Y634207D01*
X292185Y634068D01*
X292740Y633929D01*
X293388Y633698D01*
X294036Y633466D01*
X294684Y633142D01*
X295378Y632772D01*
X296026Y632355D01*
X296674Y631846D01*
X297321Y631245D01*
X297923Y630597D01*
X297969Y630551D01*
X298062Y630412D01*
X298201Y630180D01*
X298432Y629856D01*
X298664Y629440D01*
X298941Y628931D01*
X299219Y628329D01*
X299497Y627635D01*
X299774Y626802D01*
X300098Y625876D01*
X300330Y624858D01*
X300561Y623748D01*
X300792Y622498D01*
X300931Y621156D01*
X301024Y619721D01*
X301070Y618148D01*
Y618102D01*
Y618055D01*
Y617916D01*
Y617778D01*
Y617315D01*
X301024Y616713D01*
X300978Y615973D01*
X300885Y615140D01*
X300792Y614260D01*
X300654Y613289D01*
X300469Y612224D01*
X300283Y611206D01*
X300006Y610142D01*
X299682Y609077D01*
X299312Y608105D01*
X298849Y607133D01*
X298386Y606254D01*
X297784Y605467D01*
X297738Y605421D01*
X297645Y605282D01*
X297460Y605097D01*
X297183Y604866D01*
X296859Y604588D01*
X296488Y604218D01*
X296026Y603894D01*
X295517Y603524D01*
X294961Y603153D01*
X294313Y602830D01*
X293619Y602506D01*
X292879Y602182D01*
X292046Y601950D01*
X291213Y601765D01*
X290333Y601626D01*
X289362Y601580D01*
X288991D01*
X288760Y601626D01*
X288436D01*
X288066Y601673D01*
X287187Y601811D01*
X286215Y602089D01*
X285243Y602413D01*
X284225Y602922D01*
X283762Y603200D01*
X283299Y603570D01*
X283253Y603616D01*
X283207Y603663D01*
X283068Y603801D01*
X282929Y603940D01*
X282744Y604172D01*
X282512Y604403D01*
X282327Y604727D01*
X282050Y605051D01*
X281818Y605467D01*
X281541Y605884D01*
X281309Y606393D01*
X281078Y606948D01*
X280846Y607504D01*
X280661Y608152D01*
X280476Y608800D01*
X280337Y609540D01*
X286261Y610234D01*
Y610142D01*
X286307Y609910D01*
X286353Y609586D01*
X286492Y609216D01*
X286631Y608753D01*
X286816Y608290D01*
X287048Y607874D01*
X287372Y607504D01*
X287418Y607457D01*
X287557Y607365D01*
X287742Y607226D01*
X288020Y607087D01*
X288390Y606948D01*
X288760Y606810D01*
X289269Y606717D01*
X289778Y606671D01*
X289871D01*
X290102Y606717D01*
X290426Y606763D01*
X290889Y606902D01*
X291398Y607087D01*
X291907Y607411D01*
X292462Y607828D01*
X292971Y608383D01*
X293018Y608476D01*
X293110Y608568D01*
X293203Y608753D01*
X293295Y608938D01*
X293434Y609216D01*
X293527Y609540D01*
X293712Y609957D01*
X293851Y610419D01*
X293990Y610928D01*
X294128Y611530D01*
X294267Y612178D01*
X294406Y612918D01*
X294499Y613751D01*
X294591Y614677D01*
X294684Y615649D01*
X294637Y615602D01*
X294591Y615556D01*
X294452Y615417D01*
X294267Y615232D01*
X294036Y615047D01*
X293758Y614816D01*
X293110Y614307D01*
X292277Y613798D01*
X291259Y613381D01*
X290704Y613196D01*
X290148Y613103D01*
X289547Y613011D01*
X288899Y612965D01*
X288529D01*
X288251Y613011D01*
X287927Y613057D01*
X287557Y613103D01*
X286677Y613335D01*
X285659Y613659D01*
X285150Y613937D01*
X284595Y614214D01*
X284039Y614538D01*
X283484Y614908D01*
X282929Y615371D01*
X282420Y615880D01*
X282374Y615927D01*
X282281Y616019D01*
X282188Y616204D01*
X282003Y616389D01*
X281772Y616713D01*
X281541Y617037D01*
X281309Y617454D01*
X281078Y617916D01*
X280800Y618425D01*
X280569Y619027D01*
X280337Y619629D01*
X280106Y620323D01*
X279921Y621017D01*
X279828Y621804D01*
X279736Y622637D01*
X279689Y623470D01*
Y623516D01*
Y623701D01*
Y623933D01*
X279736Y624303D01*
X279782Y624719D01*
X279828Y625182D01*
X279921Y625738D01*
X280060Y626293D01*
X280383Y627542D01*
X280615Y628237D01*
X280893Y628885D01*
X281217Y629532D01*
X281633Y630180D01*
X282050Y630782D01*
X282559Y631384D01*
X282605Y631430D01*
X282697Y631522D01*
X282836Y631661D01*
X283068Y631846D01*
X283392Y632078D01*
X283716Y632355D01*
X284132Y632587D01*
X284595Y632911D01*
X285058Y633188D01*
X285659Y633420D01*
X286261Y633698D01*
X286909Y633929D01*
X287603Y634114D01*
X288343Y634253D01*
X289084Y634345D01*
X289917Y634392D01*
X290148D01*
X290380Y634345D01*
D02*
G37*
G36*
X350172Y628051D02*
X338556D01*
X337584Y622591D01*
X337630D01*
X337677Y622637D01*
X337954Y622776D01*
X338371Y622915D01*
X338880Y623146D01*
X339528Y623331D01*
X340222Y623470D01*
X341009Y623609D01*
X341796Y623655D01*
X342212D01*
X342490Y623609D01*
X342814Y623563D01*
X343230Y623516D01*
X343693Y623424D01*
X344202Y623285D01*
X345266Y622915D01*
X345868Y622683D01*
X346423Y622406D01*
X347025Y622035D01*
X347627Y621619D01*
X348182Y621156D01*
X348737Y620647D01*
X348784Y620601D01*
X348876Y620508D01*
X349015Y620323D01*
X349200Y620092D01*
X349385Y619814D01*
X349663Y619444D01*
X349894Y619027D01*
X350172Y618564D01*
X350450Y618055D01*
X350681Y617454D01*
X350959Y616806D01*
X351144Y616158D01*
X351329Y615417D01*
X351468Y614631D01*
X351560Y613798D01*
X351607Y612918D01*
Y612872D01*
Y612733D01*
Y612548D01*
X351560Y612270D01*
Y611900D01*
X351468Y611484D01*
X351421Y611021D01*
X351329Y610558D01*
X351051Y609447D01*
X350635Y608244D01*
X350357Y607596D01*
X350079Y606995D01*
X349709Y606393D01*
X349293Y605791D01*
X349246Y605745D01*
X349154Y605606D01*
X348969Y605421D01*
X348737Y605144D01*
X348413Y604819D01*
X347997Y604449D01*
X347534Y604079D01*
X347025Y603709D01*
X346423Y603292D01*
X345775Y602922D01*
X345081Y602552D01*
X344295Y602228D01*
X343461Y601950D01*
X342582Y601765D01*
X341610Y601626D01*
X340592Y601580D01*
X340176D01*
X339852Y601626D01*
X339482Y601673D01*
X339019Y601719D01*
X338556Y601765D01*
X338001Y601858D01*
X336890Y602135D01*
X335640Y602598D01*
X335039Y602830D01*
X334437Y603153D01*
X333882Y603524D01*
X333326Y603940D01*
X333280Y603987D01*
X333188Y604033D01*
X333049Y604172D01*
X332864Y604357D01*
X332678Y604634D01*
X332401Y604912D01*
X332169Y605236D01*
X331892Y605606D01*
X331568Y606069D01*
X331290Y606532D01*
X330781Y607643D01*
X330318Y608892D01*
X330179Y609586D01*
X330041Y610327D01*
X336149Y610975D01*
Y610882D01*
X336196Y610651D01*
X336288Y610234D01*
X336427Y609771D01*
X336612Y609262D01*
X336890Y608707D01*
X337260Y608198D01*
X337677Y607689D01*
X337723Y607643D01*
X337908Y607504D01*
X338186Y607319D01*
X338556Y607087D01*
X338972Y606856D01*
X339482Y606671D01*
X340083Y606532D01*
X340685Y606486D01*
X340777D01*
X341009Y606532D01*
X341379Y606578D01*
X341842Y606671D01*
X342351Y606856D01*
X342906Y607133D01*
X343461Y607550D01*
X343971Y608059D01*
X344017Y608152D01*
X344202Y608337D01*
X344387Y608707D01*
X344665Y609262D01*
X344896Y609910D01*
X345127Y610697D01*
X345266Y611669D01*
X345313Y612780D01*
Y612826D01*
Y612918D01*
Y613057D01*
Y613289D01*
X345266Y613798D01*
X345127Y614445D01*
X344989Y615186D01*
X344757Y615927D01*
X344433Y616621D01*
X343971Y617222D01*
X343924Y617268D01*
X343739Y617454D01*
X343415Y617685D01*
X343045Y618009D01*
X342536Y618287D01*
X341934Y618518D01*
X341240Y618703D01*
X340500Y618750D01*
X340222D01*
X340037Y618703D01*
X339574Y618611D01*
X338926Y618472D01*
X338186Y618194D01*
X337399Y617778D01*
X336982Y617500D01*
X336566Y617176D01*
X336149Y616806D01*
X335733Y616389D01*
X330781Y617083D01*
X333928Y633790D01*
X350172D01*
Y628051D01*
D02*
G37*
G36*
X316388Y634345D02*
X316805Y634299D01*
X317268Y634253D01*
X317777Y634160D01*
X318332Y634068D01*
X319535Y633744D01*
X320739Y633281D01*
X321386Y633003D01*
X321942Y632679D01*
X322543Y632263D01*
X323052Y631800D01*
X323099Y631754D01*
X323191Y631707D01*
X323284Y631522D01*
X323469Y631337D01*
X323700Y631106D01*
X323932Y630782D01*
X324163Y630458D01*
X324441Y630042D01*
X324904Y629116D01*
X325367Y628051D01*
X325552Y627450D01*
X325644Y626802D01*
X325737Y626108D01*
X325783Y625414D01*
Y625321D01*
Y625043D01*
X325737Y624627D01*
X325690Y624118D01*
X325598Y623470D01*
X325459Y622776D01*
X325274Y622035D01*
X324996Y621295D01*
X324950Y621202D01*
X324857Y620971D01*
X324672Y620554D01*
X324395Y620045D01*
X324071Y619444D01*
X323654Y618750D01*
X323145Y618009D01*
X322543Y617222D01*
X322497Y617176D01*
X322312Y616945D01*
X322034Y616621D01*
X321618Y616158D01*
X321063Y615602D01*
X320368Y614862D01*
X319535Y614075D01*
X318517Y613103D01*
X318471Y613057D01*
X318378Y613011D01*
X318239Y612872D01*
X318054Y612687D01*
X317545Y612224D01*
X316944Y611669D01*
X316342Y611067D01*
X315741Y610466D01*
X315185Y609957D01*
X315000Y609725D01*
X314815Y609540D01*
X314769Y609494D01*
X314676Y609401D01*
X314537Y609216D01*
X314352Y608985D01*
X313936Y608476D01*
X313565Y607874D01*
X325783D01*
Y602182D01*
X304263D01*
Y602228D01*
Y602321D01*
X304310Y602506D01*
X304356Y602737D01*
X304402Y603015D01*
X304449Y603339D01*
X304634Y604172D01*
X304911Y605097D01*
X305282Y606115D01*
X305744Y607226D01*
X306346Y608290D01*
Y608337D01*
X306439Y608429D01*
X306531Y608614D01*
X306716Y608800D01*
X306901Y609123D01*
X307179Y609447D01*
X307503Y609864D01*
X307873Y610327D01*
X308290Y610882D01*
X308799Y611437D01*
X309354Y612085D01*
X310002Y612780D01*
X310696Y613474D01*
X311483Y614260D01*
X312316Y615093D01*
X313241Y615973D01*
X313288Y616019D01*
X313427Y616158D01*
X313612Y616343D01*
X313889Y616621D01*
X314260Y616898D01*
X314630Y617268D01*
X315463Y618102D01*
X316296Y618981D01*
X317129Y619860D01*
X317499Y620230D01*
X317869Y620647D01*
X318147Y620971D01*
X318332Y621249D01*
X318378Y621341D01*
X318517Y621572D01*
X318749Y621943D01*
X318980Y622452D01*
X319211Y623007D01*
X319443Y623655D01*
X319582Y624303D01*
X319628Y624997D01*
Y625043D01*
Y625090D01*
Y625321D01*
X319582Y625738D01*
X319489Y626200D01*
X319350Y626709D01*
X319165Y627219D01*
X318887Y627728D01*
X318517Y628190D01*
X318471Y628237D01*
X318332Y628376D01*
X318054Y628561D01*
X317731Y628746D01*
X317268Y628931D01*
X316759Y629116D01*
X316157Y629255D01*
X315463Y629301D01*
X315139D01*
X314769Y629255D01*
X314352Y629162D01*
X313843Y629023D01*
X313334Y628792D01*
X312825Y628514D01*
X312362Y628144D01*
X312316Y628098D01*
X312177Y627913D01*
X311992Y627635D01*
X311807Y627219D01*
X311575Y626709D01*
X311390Y626015D01*
X311205Y625229D01*
X311113Y624303D01*
X305004Y624905D01*
Y624951D01*
X305050Y625136D01*
Y625367D01*
X305143Y625738D01*
X305189Y626154D01*
X305328Y626617D01*
X305467Y627126D01*
X305605Y627728D01*
X306068Y628885D01*
X306624Y630088D01*
X306994Y630689D01*
X307410Y631245D01*
X307873Y631707D01*
X308382Y632170D01*
X308428Y632217D01*
X308521Y632263D01*
X308660Y632355D01*
X308891Y632541D01*
X309169Y632679D01*
X309539Y632864D01*
X309909Y633096D01*
X310372Y633281D01*
X310881Y633512D01*
X311437Y633698D01*
X312640Y634068D01*
X314074Y634299D01*
X314815Y634345D01*
X315602Y634392D01*
X316064D01*
X316388Y634345D01*
D02*
G37*
G36*
X231698Y634160D02*
X232901D01*
X234197Y634068D01*
X235493Y633975D01*
X236048Y633929D01*
X236604Y633883D01*
X237066Y633790D01*
X237437Y633698D01*
X237483D01*
X237576Y633651D01*
X237714Y633605D01*
X237899Y633559D01*
X238409Y633327D01*
X239056Y633050D01*
X239751Y632633D01*
X240537Y632078D01*
X241278Y631384D01*
X242018Y630550D01*
Y630504D01*
X242111Y630458D01*
X242204Y630319D01*
X242296Y630134D01*
X242481Y629856D01*
X242620Y629579D01*
X242805Y629255D01*
X242990Y628885D01*
X243314Y627959D01*
X243638Y626941D01*
X243823Y625691D01*
X243916Y624349D01*
Y624303D01*
Y624210D01*
Y624072D01*
Y623840D01*
X243869Y623609D01*
Y623285D01*
X243777Y622637D01*
X243638Y621850D01*
X243453Y620971D01*
X243175Y620138D01*
X242805Y619351D01*
X242759Y619258D01*
X242620Y619027D01*
X242389Y618657D01*
X242065Y618194D01*
X241694Y617731D01*
X241185Y617176D01*
X240676Y616667D01*
X240075Y616204D01*
X239982Y616158D01*
X239797Y616019D01*
X239473Y615834D01*
X239056Y615602D01*
X238547Y615325D01*
X237992Y615093D01*
X237390Y614862D01*
X236743Y614677D01*
X236650D01*
X236511Y614631D01*
X236326D01*
X236095Y614584D01*
X235771Y614538D01*
X235447Y614492D01*
X235030D01*
X234614Y614445D01*
X234105Y614399D01*
X233549Y614353D01*
X232948Y614307D01*
X232300D01*
X231606Y614260D01*
X225867D01*
Y602182D01*
X219388D01*
Y634207D01*
X231189D01*
X231698Y634160D01*
D02*
G37*
G36*
X365999Y634345D02*
X366370Y634299D01*
X366832Y634207D01*
X367295Y634114D01*
X367850Y633975D01*
X368452Y633790D01*
X369007Y633559D01*
X369609Y633327D01*
X370211Y633003D01*
X370812Y632587D01*
X371414Y632170D01*
X371969Y631661D01*
X372478Y631060D01*
X372525Y631013D01*
X372617Y630874D01*
X372756Y630643D01*
X372987Y630319D01*
X373219Y629856D01*
X373496Y629301D01*
X373774Y628699D01*
X374052Y627913D01*
X374329Y627080D01*
X374653Y626108D01*
X374885Y625043D01*
X375116Y623840D01*
X375348Y622544D01*
X375486Y621156D01*
X375579Y619629D01*
X375625Y617963D01*
Y617916D01*
Y617870D01*
Y617731D01*
Y617546D01*
Y617083D01*
X375579Y616482D01*
X375533Y615741D01*
X375440Y614862D01*
X375348Y613937D01*
X375255Y612918D01*
X375070Y611854D01*
X374838Y610743D01*
X374607Y609679D01*
X374283Y608614D01*
X373959Y607550D01*
X373496Y606578D01*
X373034Y605653D01*
X372478Y604866D01*
X372432Y604819D01*
X372340Y604727D01*
X372201Y604542D01*
X372015Y604357D01*
X371738Y604125D01*
X371414Y603848D01*
X370997Y603524D01*
X370581Y603246D01*
X370072Y602922D01*
X369563Y602598D01*
X368961Y602321D01*
X368313Y602089D01*
X367619Y601904D01*
X366832Y601719D01*
X366045Y601626D01*
X365213Y601580D01*
X365027D01*
X364750Y601626D01*
X364426D01*
X364056Y601673D01*
X363593Y601765D01*
X363084Y601858D01*
X362528Y602043D01*
X361927Y602228D01*
X361325Y602459D01*
X360677Y602737D01*
X360076Y603107D01*
X359428Y603478D01*
X358826Y603987D01*
X358224Y604496D01*
X357669Y605144D01*
X357623Y605190D01*
X357530Y605329D01*
X357391Y605560D01*
X357253Y605838D01*
X357021Y606254D01*
X356790Y606763D01*
X356512Y607411D01*
X356281Y608105D01*
X356003Y608938D01*
X355725Y609864D01*
X355494Y610928D01*
X355309Y612085D01*
X355124Y613381D01*
X354985Y614816D01*
X354892Y616343D01*
X354846Y618009D01*
Y618055D01*
Y618102D01*
Y618240D01*
Y618425D01*
Y618888D01*
X354892Y619490D01*
X354939Y620230D01*
X355031Y621110D01*
X355124Y622035D01*
X355216Y623053D01*
X355401Y624118D01*
X355587Y625182D01*
X355864Y626293D01*
X356142Y627357D01*
X356512Y628376D01*
X356929Y629347D01*
X357391Y630273D01*
X357947Y631060D01*
X357993Y631106D01*
X358086Y631199D01*
X358224Y631384D01*
X358456Y631569D01*
X358687Y631846D01*
X359011Y632124D01*
X359428Y632402D01*
X359844Y632726D01*
X360353Y633050D01*
X360862Y633327D01*
X361464Y633605D01*
X362112Y633883D01*
X362806Y634068D01*
X363593Y634253D01*
X364380Y634345D01*
X365213Y634392D01*
X365675D01*
X365999Y634345D01*
D02*
G37*
%LPC*%
G36*
X44290Y698436D02*
X42811D01*
Y696809D01*
X44068D01*
X44254Y696818D01*
X44448Y696828D01*
X44642Y696837D01*
X44725Y696846D01*
X44799Y696855D01*
X44873Y696874D01*
X44919Y696883D01*
X44928D01*
X44956Y696902D01*
X45002Y696920D01*
X45049Y696948D01*
X45169Y697031D01*
X45224Y697086D01*
X45280Y697151D01*
X45289Y697160D01*
X45298Y697188D01*
X45326Y697225D01*
X45354Y697281D01*
X45372Y697355D01*
X45400Y697438D01*
X45409Y697530D01*
X45418Y697632D01*
Y697651D01*
Y697688D01*
X45409Y697743D01*
X45400Y697817D01*
X45372Y697900D01*
X45344Y697983D01*
X45298Y698076D01*
X45243Y698150D01*
X45233Y698159D01*
X45215Y698187D01*
X45169Y698214D01*
X45113Y698261D01*
X45049Y698307D01*
X44965Y698344D01*
X44864Y698381D01*
X44753Y698409D01*
X44743D01*
X44716Y698418D01*
X44660D01*
X44577Y698427D01*
X44374D01*
X44290Y698436D01*
D02*
G37*
G36*
X4645Y467958D02*
X4633D01*
X4609D01*
X4585D01*
X4537Y467946D01*
X4405Y467934D01*
X4261Y467910D01*
X4093Y467862D01*
X3913Y467802D01*
X3744Y467706D01*
X3600Y467598D01*
X3588Y467586D01*
X3540Y467538D01*
X3480Y467466D01*
X3408Y467369D01*
X3348Y467249D01*
X3288Y467105D01*
X3240Y466949D01*
X3228Y466769D01*
Y466685D01*
X3252Y466589D01*
X3276Y466468D01*
X3324Y466336D01*
X3384Y466192D01*
X3480Y466048D01*
X3612Y465916D01*
X3624Y465904D01*
X3684Y465868D01*
X3768Y465808D01*
X3889Y465747D01*
X4033Y465675D01*
X4213Y465627D01*
X4417Y465591D01*
X4645Y465579D01*
Y467958D01*
D02*
G37*
G36*
Y447930D02*
X4633D01*
X4609D01*
X4585D01*
X4537Y447918D01*
X4405Y447906D01*
X4261Y447882D01*
X4093Y447834D01*
X3913Y447774D01*
X3744Y447678D01*
X3600Y447570D01*
X3588Y447558D01*
X3540Y447510D01*
X3480Y447438D01*
X3408Y447342D01*
X3348Y447222D01*
X3288Y447077D01*
X3240Y446921D01*
X3228Y446741D01*
Y446657D01*
X3252Y446561D01*
X3276Y446441D01*
X3324Y446309D01*
X3384Y446164D01*
X3480Y446020D01*
X3612Y445888D01*
X3624Y445876D01*
X3684Y445840D01*
X3768Y445780D01*
X3889Y445720D01*
X4033Y445648D01*
X4213Y445600D01*
X4417Y445564D01*
X4645Y445552D01*
Y447930D01*
D02*
G37*
G36*
X5078Y441203D02*
X5066D01*
X5042D01*
X4994D01*
X4922D01*
X4850Y441190D01*
X4753Y441178D01*
X4549Y441154D01*
X4321Y441106D01*
X4093Y441046D01*
X3876Y440950D01*
X3684Y440818D01*
X3660Y440806D01*
X3612Y440746D01*
X3540Y440662D01*
X3456Y440554D01*
X3372Y440410D01*
X3300Y440241D01*
X3252Y440061D01*
X3228Y439845D01*
Y439821D01*
X3240Y439749D01*
X3252Y439641D01*
X3288Y439509D01*
X3336Y439364D01*
X3420Y439196D01*
X3528Y439040D01*
X3684Y438896D01*
X3708Y438884D01*
X3768Y438836D01*
X3876Y438788D01*
X4021Y438716D01*
X4213Y438656D01*
X4441Y438595D01*
X4717Y438547D01*
X5042Y438535D01*
X5054D01*
X5078D01*
X5138D01*
X5198Y438547D01*
X5270D01*
X5366Y438559D01*
X5570Y438583D01*
X5799Y438619D01*
X6027Y438691D01*
X6243Y438776D01*
X6435Y438896D01*
X6460Y438908D01*
X6508Y438968D01*
X6580Y439040D01*
X6652Y439148D01*
X6736Y439280D01*
X6808Y439436D01*
X6856Y439617D01*
X6880Y439809D01*
Y439833D01*
X6868Y439905D01*
X6856Y440013D01*
X6820Y440157D01*
X6772Y440313D01*
X6688Y440470D01*
X6580Y440638D01*
X6424Y440794D01*
X6399Y440806D01*
X6339Y440854D01*
X6231Y440926D01*
X6087Y440998D01*
X5895Y441070D01*
X5667Y441142D01*
X5390Y441190D01*
X5078Y441203D01*
D02*
G37*
G36*
X4645Y434366D02*
X4633D01*
X4609D01*
X4585D01*
X4537Y434354D01*
X4405Y434342D01*
X4261Y434318D01*
X4093Y434270D01*
X3913Y434210D01*
X3744Y434114D01*
X3600Y434006D01*
X3588Y433994D01*
X3540Y433946D01*
X3480Y433874D01*
X3408Y433778D01*
X3348Y433658D01*
X3288Y433513D01*
X3240Y433357D01*
X3228Y433177D01*
Y433093D01*
X3252Y432997D01*
X3276Y432877D01*
X3324Y432744D01*
X3384Y432600D01*
X3480Y432456D01*
X3612Y432324D01*
X3624Y432312D01*
X3684Y432276D01*
X3768Y432216D01*
X3889Y432156D01*
X4033Y432084D01*
X4213Y432036D01*
X4417Y432000D01*
X4645Y431988D01*
Y434366D01*
D02*
G37*
G36*
X5830Y407355D02*
X5818D01*
X5794D01*
X5770D01*
X5722Y407343D01*
X5590Y407331D01*
X5445Y407307D01*
X5277Y407259D01*
X5097Y407198D01*
X4929Y407102D01*
X4785Y406994D01*
X4773Y406982D01*
X4724Y406934D01*
X4664Y406862D01*
X4592Y406766D01*
X4532Y406646D01*
X4472Y406502D01*
X4424Y406345D01*
X4412Y406165D01*
Y406081D01*
X4436Y405985D01*
X4460Y405865D01*
X4508Y405733D01*
X4568Y405589D01*
X4664Y405444D01*
X4796Y405312D01*
X4809Y405300D01*
X4869Y405264D01*
X4953Y405204D01*
X5073Y405144D01*
X5217Y405072D01*
X5397Y405024D01*
X5602Y404988D01*
X5830Y404976D01*
Y407355D01*
D02*
G37*
G36*
Y387327D02*
X5818D01*
X5794D01*
X5770D01*
X5722Y387315D01*
X5590Y387303D01*
X5445Y387279D01*
X5277Y387231D01*
X5097Y387171D01*
X4929Y387075D01*
X4785Y386967D01*
X4773Y386955D01*
X4724Y386907D01*
X4664Y386834D01*
X4592Y386738D01*
X4532Y386618D01*
X4472Y386474D01*
X4424Y386318D01*
X4412Y386138D01*
Y386054D01*
X4436Y385957D01*
X4460Y385837D01*
X4508Y385705D01*
X4568Y385561D01*
X4664Y385417D01*
X4796Y385285D01*
X4809Y385273D01*
X4869Y385237D01*
X4953Y385177D01*
X5073Y385116D01*
X5217Y385044D01*
X5397Y384996D01*
X5602Y384960D01*
X5830Y384948D01*
Y387327D01*
D02*
G37*
G36*
X6334Y374412D02*
X6322D01*
X6298D01*
X6250D01*
X6190Y374400D01*
X6118D01*
X6022Y374388D01*
X5830Y374364D01*
X5613Y374304D01*
X5385Y374232D01*
X5157Y374123D01*
X4965Y373979D01*
X4941Y373955D01*
X4893Y373907D01*
X4809Y373811D01*
X4724Y373691D01*
X4640Y373535D01*
X4556Y373367D01*
X4508Y373162D01*
X4484Y372934D01*
Y372874D01*
X4496Y372826D01*
X4508Y372718D01*
X4544Y372574D01*
X4604Y372405D01*
X4688Y372225D01*
X4809Y372045D01*
X4965Y371877D01*
X4989Y371865D01*
X5049Y371817D01*
X5169Y371745D01*
X5313Y371673D01*
X5505Y371588D01*
X5746Y371528D01*
X6022Y371480D01*
X6334Y371456D01*
X6346D01*
X6370D01*
X6418D01*
X6478Y371468D01*
X6563D01*
X6647Y371480D01*
X6839Y371504D01*
X7067Y371564D01*
X7296Y371637D01*
X7524Y371733D01*
X7716Y371877D01*
X7740Y371901D01*
X7788Y371949D01*
X7860Y372045D01*
X7944Y372177D01*
X8040Y372321D01*
X8112Y372501D01*
X8160Y372706D01*
X8184Y372934D01*
Y372994D01*
X8173Y373042D01*
X8160Y373150D01*
X8124Y373294D01*
X8064Y373463D01*
X7992Y373643D01*
X7872Y373811D01*
X7716Y373979D01*
X7692Y374003D01*
X7632Y374051D01*
X7512Y374111D01*
X7368Y374196D01*
X7163Y374280D01*
X6935Y374340D01*
X6647Y374388D01*
X6334Y374412D01*
D02*
G37*
G36*
X3631Y367095D02*
X3607D01*
X3559D01*
X3475Y367083D01*
X3367Y367059D01*
X3247Y367023D01*
X3115Y366975D01*
X2994Y366915D01*
X2874Y366819D01*
X2862Y366807D01*
X2826Y366771D01*
X2778Y366711D01*
X2718Y366639D01*
X2646Y366543D01*
X2586Y366422D01*
X2538Y366290D01*
X2502Y366146D01*
Y366134D01*
X2490Y366086D01*
X2478Y366002D01*
X2466Y365882D01*
Y365726D01*
X2454Y365617D01*
Y365509D01*
X2442Y365389D01*
Y364140D01*
X4809D01*
Y365293D01*
X4796Y365377D01*
Y365593D01*
X4785Y365810D01*
X4760Y366026D01*
X4724Y366218D01*
X4712Y366302D01*
X4688Y366374D01*
X4676Y366386D01*
X4664Y366434D01*
X4628Y366494D01*
X4592Y366567D01*
X4532Y366651D01*
X4460Y366735D01*
X4376Y366831D01*
X4280Y366903D01*
X4268Y366915D01*
X4232Y366939D01*
X4172Y366963D01*
X4088Y366999D01*
X3992Y367035D01*
X3884Y367071D01*
X3763Y367083D01*
X3631Y367095D01*
D02*
G37*
G36*
X289639Y629301D02*
X289362D01*
X289038Y629208D01*
X288667Y629116D01*
X288205Y628977D01*
X287742Y628699D01*
X287279Y628376D01*
X286816Y627913D01*
X286770Y627866D01*
X286631Y627635D01*
X286446Y627311D01*
X286261Y626848D01*
X286076Y626247D01*
X285891Y625460D01*
X285752Y624534D01*
X285706Y623470D01*
Y623424D01*
Y623331D01*
Y623192D01*
Y622961D01*
X285752Y622406D01*
X285844Y621758D01*
X285983Y620971D01*
X286215Y620230D01*
X286492Y619490D01*
X286909Y618888D01*
X286955Y618842D01*
X287140Y618657D01*
X287372Y618425D01*
X287742Y618194D01*
X288205Y617916D01*
X288714Y617685D01*
X289315Y617500D01*
X289963Y617454D01*
X290056D01*
X290241Y617500D01*
X290565Y617546D01*
X290981Y617639D01*
X291444Y617778D01*
X291953Y618055D01*
X292462Y618379D01*
X292925Y618842D01*
X292971Y618888D01*
X293110Y619120D01*
X293342Y619444D01*
X293573Y619860D01*
X293758Y620462D01*
X293990Y621156D01*
X294128Y621989D01*
X294175Y622961D01*
Y623007D01*
Y623100D01*
Y623238D01*
Y623470D01*
X294082Y623979D01*
X293990Y624673D01*
X293851Y625414D01*
X293573Y626200D01*
X293249Y626941D01*
X292786Y627635D01*
X292740Y627728D01*
X292555Y627913D01*
X292277Y628144D01*
X291907Y628468D01*
X291444Y628792D01*
X290889Y629023D01*
X290287Y629208D01*
X289639Y629301D01*
D02*
G37*
G36*
X230680Y628792D02*
X225867D01*
Y619675D01*
X230310D01*
X230634Y619721D01*
X231467D01*
X232300Y619768D01*
X233133Y619860D01*
X233873Y619999D01*
X234197Y620045D01*
X234475Y620138D01*
X234521Y620184D01*
X234706Y620230D01*
X234938Y620369D01*
X235215Y620508D01*
X235539Y620739D01*
X235863Y621017D01*
X236234Y621341D01*
X236511Y621711D01*
X236558Y621758D01*
X236650Y621896D01*
X236743Y622128D01*
X236881Y622452D01*
X237020Y622822D01*
X237159Y623238D01*
X237205Y623701D01*
X237252Y624210D01*
Y624303D01*
Y624488D01*
X237205Y624812D01*
X237113Y625229D01*
X236974Y625691D01*
X236789Y626200D01*
X236558Y626663D01*
X236187Y627126D01*
X236141Y627172D01*
X236002Y627311D01*
X235771Y627496D01*
X235493Y627728D01*
X235123Y628005D01*
X234660Y628237D01*
X234151Y628422D01*
X233596Y628560D01*
X233549D01*
X233364Y628607D01*
X233040Y628653D01*
X232577Y628699D01*
X231976D01*
X231559Y628746D01*
X231143D01*
X230680Y628792D01*
D02*
G37*
G36*
X365213Y629301D02*
X365027D01*
X364796Y629255D01*
X364565Y629208D01*
X364241Y629116D01*
X363917Y628977D01*
X363546Y628792D01*
X363223Y628561D01*
X363176Y628514D01*
X363084Y628422D01*
X362945Y628237D01*
X362760Y628005D01*
X362528Y627635D01*
X362343Y627219D01*
X362112Y626663D01*
X361927Y626015D01*
Y625969D01*
X361880Y625923D01*
Y625738D01*
X361834Y625552D01*
X361788Y625275D01*
X361742Y624951D01*
X361695Y624581D01*
X361649Y624118D01*
X361557Y623563D01*
X361510Y623007D01*
X361464Y622313D01*
X361418Y621619D01*
X361371Y620786D01*
Y619953D01*
X361325Y618981D01*
Y617963D01*
Y617916D01*
Y617731D01*
Y617407D01*
Y617037D01*
Y616574D01*
X361371Y616065D01*
Y615464D01*
X361418Y614862D01*
X361464Y613566D01*
X361557Y612270D01*
X361603Y611669D01*
X361695Y611114D01*
X361788Y610604D01*
X361880Y610142D01*
X361927Y610049D01*
X361973Y609818D01*
X362112Y609447D01*
X362251Y609031D01*
X362482Y608568D01*
X362714Y608105D01*
X362991Y607689D01*
X363269Y607365D01*
X363315Y607319D01*
X363408Y607272D01*
X363593Y607133D01*
X363824Y607041D01*
X364102Y606902D01*
X364426Y606763D01*
X364796Y606717D01*
X365213Y606671D01*
X365398D01*
X365629Y606717D01*
X365860Y606763D01*
X366184Y606856D01*
X366508Y606948D01*
X366832Y607133D01*
X367156Y607365D01*
X367202Y607411D01*
X367295Y607504D01*
X367480Y607689D01*
X367665Y607966D01*
X367850Y608290D01*
X368082Y608753D01*
X368313Y609262D01*
X368498Y609910D01*
Y609957D01*
X368545Y610003D01*
Y610188D01*
X368591Y610373D01*
X368637Y610651D01*
X368683Y610975D01*
X368776Y611345D01*
X368822Y611808D01*
X368869Y612317D01*
X368961Y612918D01*
X369007Y613566D01*
X369054Y614307D01*
X369100Y615093D01*
Y615973D01*
X369146Y616945D01*
Y617963D01*
Y618009D01*
Y618194D01*
Y618518D01*
Y618888D01*
Y619351D01*
X369100Y619860D01*
Y620462D01*
X369054Y621063D01*
X369007Y622359D01*
X368915Y623609D01*
X368822Y624210D01*
X368730Y624812D01*
X368637Y625321D01*
X368545Y625738D01*
Y625784D01*
X368498Y625830D01*
X368452Y626062D01*
X368313Y626432D01*
X368174Y626894D01*
X367943Y627357D01*
X367712Y627820D01*
X367434Y628237D01*
X367156Y628561D01*
X367110Y628607D01*
X367017Y628699D01*
X366832Y628792D01*
X366601Y628931D01*
X366323Y629070D01*
X365999Y629208D01*
X365629Y629255D01*
X365213Y629301D01*
D02*
G37*
%LPD*%
D10*
X114600Y50000D02*
G03*
X114600Y50000I-22000J0D01*
G01*
X165400D02*
G03*
X165400Y50000I-22000J0D01*
G01*
X225192Y114212D02*
G03*
X225192Y114212I-3592J0D01*
G01*
X265000Y68000D02*
G03*
X258000Y75000I-7000J0D01*
G01*
X216000D02*
G03*
X209000Y68000I0J-7000D01*
G01*
X247565Y24342D02*
G03*
X247565Y69658I-10566J22658D01*
G01*
X226434D02*
G03*
X226434Y24342I10566J-22658D01*
G01*
X13000Y354700D02*
G03*
X13000Y354700I-2000J0D01*
G01*
Y469700D02*
G03*
X13000Y469700I-2000J0D01*
G01*
X65658Y177565D02*
G03*
X20342Y177565I-22658J-10566D01*
G01*
Y156434D02*
G03*
X65658Y156434I22658J10566D01*
G01*
X71000Y188000D02*
G03*
X64000Y195000I-7000J-0D01*
G01*
Y139000D02*
G03*
X71000Y146000I0J7000D01*
G01*
X515000Y159000D02*
G03*
X515000Y159000I-2000J0D01*
G01*
X522000Y176000D02*
G03*
X522000Y176000I-2000J0D01*
G01*
X323658Y180565D02*
G03*
X278342Y180565I-22658J-10566D01*
G01*
Y159434D02*
G03*
X323658Y159434I22658J10566D01*
G01*
X329000Y191000D02*
G03*
X322000Y198000I-7000J-0D01*
G01*
Y142000D02*
G03*
X329000Y149000I0J7000D01*
G01*
X278000Y239000D02*
G03*
X285000Y232000I7000J0D01*
G01*
X327000D02*
G03*
X334000Y239000I-0J7000D01*
G01*
X295434Y282658D02*
G03*
X295434Y237342I10566J-22658D01*
G01*
X316565D02*
G03*
X316565Y282658I-10566J22658D01*
G01*
X149192Y246212D02*
G03*
X149192Y246212I-3592J0D01*
G01*
X86000Y590000D02*
G03*
X86000Y590000I-2000J0D01*
G01*
X79500Y573640D02*
G03*
X79500Y573640I-2000J0D01*
G01*
X447589Y495444D02*
G03*
X418791Y365547I19411J-72444D01*
G01*
X515209D02*
G03*
X486411Y495444I-48209J57453D01*
G01*
X148000Y525000D02*
G03*
X148000Y525000I-2000J0D01*
G01*
X34000Y96000D02*
X40000Y90000D01*
X34000Y96000D02*
X46000D01*
X40000Y90000D02*
X46000Y96000D01*
X32000Y79000D02*
Y91000D01*
X48000Y79000D02*
Y91000D01*
Y95000D02*
Y110000D01*
X32000Y95000D02*
Y110000D01*
X48000D01*
X32000Y79000D02*
X35000Y76000D01*
X45000D01*
X48000Y79000D01*
X18000Y96000D02*
X24000Y90000D01*
X12000D02*
X24000D01*
X12000D02*
X18000Y96000D01*
X26000Y95000D02*
Y107000D01*
X10000Y95000D02*
Y107000D01*
Y76000D02*
Y91000D01*
X26000Y76000D02*
Y91000D01*
X10000Y76000D02*
X26000D01*
X23000Y110000D02*
X26000Y107000D01*
X13000Y110000D02*
X23000D01*
X10000Y107000D02*
X13000Y110000D01*
X67454Y5000D02*
X168800D01*
X67454Y-800D02*
X168800D01*
Y106000D01*
X67454D02*
X168800D01*
X67454Y19300D02*
X168800D01*
X67454Y72700D02*
X168800D01*
X67454Y-800D02*
Y106000D01*
X229000Y548000D02*
X245000D01*
X229000D02*
Y563000D01*
X245000Y548000D02*
Y563000D01*
Y567000D02*
Y582000D01*
X229000Y567000D02*
Y582000D01*
X245000D01*
X203000Y548000D02*
X219000D01*
X203000D02*
Y563000D01*
X219000Y548000D02*
Y563000D01*
Y567000D02*
Y582000D01*
X203000Y567000D02*
Y582000D01*
X219000D01*
X36000Y360000D02*
X41000Y355000D01*
X36000Y396000D02*
X39000D01*
X36000Y366000D02*
Y396000D01*
X56000Y366000D02*
Y396000D01*
X53000D02*
X56000D01*
X41000Y355000D02*
X51000D01*
X56000Y360000D01*
X42000Y386000D02*
X50000D01*
X46000Y382000D02*
X50000Y386000D01*
X42000D02*
X46000Y382000D01*
X446000Y111000D02*
X462000D01*
X446000D02*
Y126000D01*
X462000Y111000D02*
Y126000D01*
Y130000D02*
Y145000D01*
X446000Y130000D02*
Y145000D01*
X462000D01*
X479000Y90000D02*
Y106000D01*
X464000Y90000D02*
X479000D01*
X464000Y106000D02*
X479000D01*
X445000D02*
X460000D01*
X445000Y90000D02*
X460000D01*
X445000D02*
Y106000D01*
X158642Y432000D02*
X174642D01*
X158642D02*
Y447000D01*
X174642Y432000D02*
Y447000D01*
Y451000D02*
Y466000D01*
X158642Y451000D02*
Y466000D01*
X174642D01*
X173000Y39000D02*
X179000Y33000D01*
X173000Y39000D02*
X185000D01*
X179000Y33000D02*
X185000Y39000D01*
X171000Y22000D02*
Y34000D01*
X187000Y22000D02*
Y34000D01*
Y38000D02*
Y53000D01*
X171000Y38000D02*
Y53000D01*
X187000D01*
X171000Y22000D02*
X174000Y19000D01*
X184000D01*
X187000Y22000D01*
X70000Y374000D02*
Y488000D01*
X84000D01*
X70000Y374000D02*
X84000D01*
X104000D02*
X118000D01*
X104000Y488000D02*
X118000D01*
Y374000D02*
Y488000D01*
X122000D02*
X138000D01*
X122000Y473000D02*
Y488000D01*
X138000Y473000D02*
Y488000D01*
Y454000D02*
Y469000D01*
X122000Y454000D02*
Y469000D01*
Y454000D02*
X138000D01*
X122000Y374000D02*
X138000D01*
Y389000D01*
X122000Y374000D02*
Y389000D01*
Y393000D02*
Y408000D01*
X138000Y393000D02*
Y408000D01*
X122000D02*
X138000D01*
X447000Y258000D02*
Y274000D01*
X432000Y258000D02*
X447000D01*
X432000Y274000D02*
X447000D01*
X413000D02*
X428000D01*
X413000Y258000D02*
X428000D01*
X413000D02*
Y274000D01*
X435000Y226000D02*
X446000D01*
Y242000D01*
X425000D02*
X435000D01*
X414000Y226000D02*
Y242000D01*
Y226000D02*
X425000D01*
X199000Y224500D02*
X271000D01*
X199000D02*
Y227000D01*
X271000Y224500D02*
Y227000D01*
Y291000D02*
Y293500D01*
X199000Y291000D02*
Y293500D01*
X271000D01*
X104424Y208839D02*
X106000Y213000D01*
X104476Y115423D02*
X106000Y111400D01*
Y111000D02*
X206000D01*
X106000Y213000D02*
X206000D01*
Y111000D02*
Y213000D01*
X253000Y19000D02*
X265000Y31000D01*
X247000Y19000D02*
X253000D01*
X247000Y75000D02*
X258000D01*
X265000Y31000D02*
Y68000D01*
X209000Y31000D02*
Y68000D01*
X216000Y75000D02*
X227000D01*
X221000Y19000D02*
X227000D01*
X209000Y31000D02*
X221000Y19000D01*
X191000Y53000D02*
X207000D01*
Y38000D02*
Y53000D01*
X191000Y38000D02*
Y53000D01*
Y19000D02*
Y34000D01*
X207000Y19000D02*
Y34000D01*
X191000Y19000D02*
X207000D01*
X-83600Y352600D02*
X5300D01*
X-83600D02*
Y461000D01*
X5300D01*
Y352600D02*
Y461000D01*
X-83600Y467600D02*
X5300D01*
X-83600D02*
Y576000D01*
X5300D01*
Y467600D02*
Y576000D01*
X150000Y231000D02*
X154000D01*
X160000D02*
X164000D01*
X160000Y227000D02*
Y235000D01*
X154000Y225000D02*
X160000Y231000D01*
X154000Y225000D02*
Y237000D01*
X160000Y231000D01*
X133000Y216000D02*
X181000D01*
X186000Y221000D01*
X133000Y246000D02*
X181000D01*
X186000Y241000D01*
X133000Y216000D02*
Y221000D01*
Y241000D02*
Y246000D01*
X15000Y183000D02*
X27000Y195000D01*
X15000Y177000D02*
Y183000D01*
X71000Y177000D02*
Y188000D01*
X27000Y195000D02*
X64000D01*
X27000Y139000D02*
X64000D01*
X71000Y146000D02*
Y157000D01*
X15000Y151000D02*
Y157000D01*
Y151000D02*
X27000Y139000D01*
X41000Y201000D02*
Y217000D01*
X56000D01*
X41000Y201000D02*
X56000D01*
X60000D02*
X75000D01*
X60000Y217000D02*
X75000D01*
Y201000D02*
Y217000D01*
X184000Y58000D02*
X187000Y61000D01*
X174000Y58000D02*
X184000D01*
X171000Y61000D02*
X174000Y58000D01*
X171000Y92000D02*
X187000D01*
X171000Y77000D02*
Y92000D01*
X187000Y77000D02*
Y92000D01*
Y61000D02*
Y73000D01*
X171000Y61000D02*
Y73000D01*
X179000Y72000D02*
X185000Y78000D01*
X173000D02*
X185000D01*
X173000D02*
X179000Y72000D01*
X296000Y53000D02*
X300000D01*
X306000D02*
X310000D01*
X306000Y49000D02*
Y57000D01*
X300000Y47000D02*
X306000Y53000D01*
X300000Y47000D02*
Y59000D01*
X306000Y53000D01*
X279000Y38000D02*
X327000D01*
X332000Y43000D01*
X279000Y68000D02*
X327000D01*
X332000Y63000D01*
X279000Y38000D02*
Y43000D01*
Y63000D02*
Y68000D01*
X514000Y202000D02*
X530000D01*
X514000D02*
Y217000D01*
X530000Y202000D02*
Y217000D01*
Y221000D02*
Y236000D01*
X514000Y221000D02*
Y236000D01*
X530000D01*
X466000Y201000D02*
X482000D01*
X466000D02*
Y216000D01*
X482000Y201000D02*
Y216000D01*
Y220000D02*
Y235000D01*
X466000Y220000D02*
Y235000D01*
X482000D01*
X467000Y129000D02*
Y171000D01*
Y129000D02*
X470000D01*
X467000Y171000D02*
X470000D01*
X518000D02*
X521000D01*
X518000Y129000D02*
X521000D01*
Y171000D01*
X361000Y40000D02*
X376000D01*
X361000D02*
Y78000D01*
X429000Y40000D02*
Y78000D01*
X414000Y40000D02*
X429000D01*
X425000Y78000D02*
X429000D01*
X361000D02*
X365000D01*
X379000D02*
X388000D01*
X402000D02*
X411000D01*
X276000Y141500D02*
X348000D01*
X276000Y139000D02*
Y141500D01*
X348000Y139000D02*
Y141500D01*
Y72500D02*
Y75000D01*
X276000Y72500D02*
Y75000D01*
Y72500D02*
X348000D01*
X273000Y186000D02*
X285000Y198000D01*
X273000Y180000D02*
Y186000D01*
X329000Y180000D02*
Y191000D01*
X285000Y198000D02*
X322000D01*
X285000Y142000D02*
X322000D01*
X329000Y149000D02*
Y160000D01*
X273000Y154000D02*
Y160000D01*
Y154000D02*
X285000Y142000D01*
X358000Y194000D02*
X361000Y197000D01*
X371000D01*
X374000Y194000D01*
X358000Y163000D02*
X374000D01*
Y178000D01*
X358000Y163000D02*
Y178000D01*
Y182000D02*
Y194000D01*
X374000Y182000D02*
Y194000D01*
X360000Y177000D02*
X366000Y183000D01*
X360000Y177000D02*
X372000D01*
X366000Y183000D02*
X372000Y177000D01*
X338000Y197000D02*
X354000D01*
Y182000D02*
Y197000D01*
X338000Y182000D02*
Y197000D01*
Y163000D02*
Y178000D01*
X354000Y163000D02*
Y178000D01*
X338000Y163000D02*
X354000D01*
X371000Y223000D02*
X374000Y226000D01*
X361000Y223000D02*
X371000D01*
X358000Y226000D02*
X361000Y223000D01*
X358000Y257000D02*
X374000D01*
X358000Y242000D02*
Y257000D01*
X374000Y242000D02*
Y257000D01*
Y226000D02*
Y238000D01*
X358000Y226000D02*
Y238000D01*
X366000Y237000D02*
X372000Y243000D01*
X360000D02*
X372000D01*
X360000D02*
X366000Y237000D01*
X338000Y223000D02*
X354000D01*
X338000D02*
Y238000D01*
X354000Y223000D02*
Y238000D01*
Y242000D02*
Y257000D01*
X338000Y242000D02*
Y257000D01*
X354000D01*
X278000Y276000D02*
X290000Y288000D01*
X296000D01*
X285000Y232000D02*
X296000D01*
X278000Y239000D02*
Y276000D01*
X334000Y239000D02*
Y276000D01*
X316000Y232000D02*
X327000D01*
X316000Y288000D02*
X322000D01*
X334000Y276000D01*
X487000Y215000D02*
Y227000D01*
X509000Y215000D02*
Y227000D01*
X487000Y215000D02*
X509000D01*
X159000Y391000D02*
X175000D01*
X159000Y376000D02*
Y391000D01*
X175000Y376000D02*
Y391000D01*
Y357000D02*
Y372000D01*
X159000Y357000D02*
Y372000D01*
Y357000D02*
X175000D01*
X158642Y428000D02*
X174642D01*
Y413000D02*
Y428000D01*
X158642Y413000D02*
Y428000D01*
Y394000D02*
Y409000D01*
X174642Y394000D02*
Y409000D01*
X158642Y394000D02*
X174642D01*
X235642Y485000D02*
Y501000D01*
X220642Y485000D02*
X235642D01*
X220642Y501000D02*
X235642D01*
X201642D02*
X216642D01*
X201642Y485000D02*
X216642D01*
X201642D02*
Y501000D01*
X392000Y267000D02*
X408000D01*
X392000Y252000D02*
Y267000D01*
X408000Y252000D02*
Y267000D01*
Y233000D02*
Y248000D01*
X392000Y233000D02*
Y248000D01*
Y233000D02*
X408000D01*
X394000Y194000D02*
X410000D01*
X394000Y179000D02*
Y194000D01*
X410000Y179000D02*
Y194000D01*
Y160000D02*
Y175000D01*
X394000Y160000D02*
Y175000D01*
Y160000D02*
X410000D01*
X130000Y243000D02*
Y345000D01*
X30000D02*
X130000D01*
X30000Y243000D02*
X130000D01*
X28476Y247423D02*
X30000Y243400D01*
X28424Y340839D02*
X30000Y345000D01*
X414000Y149000D02*
X425000D01*
X414000D02*
Y165000D01*
X425000D02*
X435000D01*
X446000Y149000D02*
Y165000D01*
X435000Y149000D02*
X446000D01*
X413000Y184000D02*
Y200000D01*
Y184000D02*
X428000D01*
X413000Y200000D02*
X428000D01*
X432000D02*
X447000D01*
X432000Y184000D02*
X447000D01*
Y200000D01*
X64000Y481000D02*
Y497000D01*
X49000D02*
X64000D01*
X49000Y481000D02*
X64000D01*
X30000D02*
X45000D01*
X30000Y497000D02*
X45000D01*
X30000Y481000D02*
Y497000D01*
X81000Y581000D02*
X85000D01*
X81000Y525000D02*
X85000D01*
Y581000D01*
X31000Y525000D02*
Y581000D01*
Y525000D02*
X35000D01*
X31000Y581000D02*
X35000D01*
X12000Y609000D02*
Y625000D01*
X27000D01*
X12000Y609000D02*
X27000D01*
X31000D02*
X46000D01*
X31000Y625000D02*
X46000D01*
Y609000D02*
Y625000D01*
X100000Y638000D02*
Y654000D01*
X85000D02*
X100000D01*
X85000Y638000D02*
X100000D01*
X66000D02*
X81000D01*
X66000Y654000D02*
X81000D01*
X66000Y638000D02*
Y654000D01*
X54000Y609000D02*
Y625000D01*
Y609000D02*
X69000D01*
X54000Y625000D02*
X69000D01*
X73000D02*
X88000D01*
X73000Y609000D02*
X88000D01*
Y625000D01*
X103000Y638000D02*
Y654000D01*
X118000D01*
X103000Y638000D02*
X118000D01*
X122000D02*
X137000D01*
X122000Y654000D02*
X137000D01*
Y638000D02*
Y654000D01*
X103000Y619000D02*
Y635000D01*
Y619000D02*
X118000D01*
X103000Y635000D02*
X118000D01*
X122000D02*
X137000D01*
X122000Y619000D02*
X137000D01*
Y635000D01*
X83000Y697000D02*
X145000D01*
X83000Y659000D02*
X145000D01*
X83000Y688000D02*
Y697000D01*
Y659000D02*
Y668000D01*
X145000Y659000D02*
Y668000D01*
Y688000D02*
Y697000D01*
X392000Y365000D02*
X418791D01*
X392000Y335000D02*
Y365000D01*
Y335000D02*
X450000D01*
X484000D02*
X542000D01*
Y365000D01*
X515209D02*
X542000D01*
X406000Y606000D02*
X422000D01*
Y621000D01*
X406000Y606000D02*
Y621000D01*
Y625000D02*
Y640000D01*
X422000Y625000D02*
Y640000D01*
X406000D02*
X422000D01*
X426000Y541000D02*
X488000D01*
Y693000D01*
X426000D02*
X488000D01*
X426000Y541000D02*
Y693000D01*
X518000Y90000D02*
Y106000D01*
X503000D02*
X518000D01*
X503000Y90000D02*
X518000D01*
X484000D02*
X499000D01*
X484000Y106000D02*
X499000D01*
X484000Y90000D02*
Y106000D01*
X149080Y542700D02*
Y692700D01*
Y692560D02*
X399080D01*
X149080Y542700D02*
X399080D01*
X399460D02*
Y692700D01*
X312000Y443000D02*
X328000D01*
X312000Y428000D02*
Y443000D01*
X328000Y428000D02*
Y443000D01*
Y409000D02*
Y424000D01*
X312000Y409000D02*
Y424000D01*
Y409000D02*
X328000D01*
X292000Y443000D02*
X308000D01*
X292000Y428000D02*
Y443000D01*
X308000Y428000D02*
Y443000D01*
Y409000D02*
Y424000D01*
X292000Y409000D02*
Y424000D01*
Y409000D02*
X308000D01*
X291642Y446000D02*
X307642D01*
Y461000D01*
X291642Y446000D02*
Y461000D01*
Y465000D02*
Y480000D01*
X307642Y465000D02*
Y480000D01*
X291642D02*
X307642D01*
D11*
X483125Y43541D02*
G03*
X483125Y26459I31876J-8541D01*
G01*
X486421Y18500D02*
G03*
X498500Y6421I28579J16500D01*
G01*
X506459Y3124D02*
G03*
X523541Y3124I8541J31876D01*
G01*
X531500Y6421D02*
G03*
X543579Y18500I-16500J28579D01*
G01*
X546876Y26459D02*
G03*
X546876Y43541I-31876J8541D01*
G01*
X543579Y51500D02*
G03*
X531500Y63579I-28579J-16500D01*
G01*
X523541Y66876D02*
G03*
X506459Y66876I-8541J-31876D01*
G01*
X498500Y63579D02*
G03*
X486421Y51500I16500J-28579D01*
G01*
X3124Y43541D02*
G03*
X3124Y26459I31876J-8541D01*
G01*
X6421Y18500D02*
G03*
X18500Y6421I28579J16500D01*
G01*
X26459Y3124D02*
G03*
X43541Y3124I8541J31876D01*
G01*
X51500Y6421D02*
G03*
X63579Y18500I-16500J28579D01*
G01*
X66876Y26459D02*
G03*
X66876Y43541I-31876J8541D01*
G01*
X63579Y51500D02*
G03*
X51500Y63579I-28579J-16500D01*
G01*
X43541Y66876D02*
G03*
X26459Y66876I-8541J-31876D01*
G01*
X18500Y63579D02*
G03*
X6421Y51500I16500J-28579D01*
G01*
X483125Y673541D02*
G03*
X483125Y656459I31876J-8541D01*
G01*
X486421Y648500D02*
G03*
X498500Y636421I28579J16500D01*
G01*
X506459Y633124D02*
G03*
X523541Y633124I8541J31876D01*
G01*
X531500Y636421D02*
G03*
X543579Y648500I-16500J28579D01*
G01*
X546876Y656459D02*
G03*
X546876Y673541I-31876J8541D01*
G01*
X543579Y681500D02*
G03*
X531500Y693579I-28579J-16500D01*
G01*
X523541Y696876D02*
G03*
X506459Y696876I-8541J-31876D01*
G01*
X498500Y693579D02*
G03*
X486421Y681500I16500J-28579D01*
G01*
X3124Y673541D02*
G03*
X3124Y656459I31876J-8541D01*
G01*
X6421Y648500D02*
G03*
X18500Y636421I28579J16500D01*
G01*
X26459Y633124D02*
G03*
X43541Y633124I8541J31876D01*
G01*
X51500Y636421D02*
G03*
X63579Y648500I-16500J28579D01*
G01*
X66876Y656459D02*
G03*
X66876Y673541I-31876J8541D01*
G01*
X63579Y681500D02*
G03*
X51500Y693579I-28579J-16500D01*
G01*
X43541Y696876D02*
G03*
X26459Y696876I-8541J-31876D01*
G01*
X18500Y693579D02*
G03*
X6421Y681500I16500J-28579D01*
G01*
D12*
X206904Y373491D02*
G03*
X206904Y373491I-762J0D01*
G01*
X270853Y389789D02*
Y394649D01*
X265994Y464211D02*
X270853D01*
X196431Y459351D02*
Y464211D01*
Y389789D02*
X201291D01*
X265994D02*
X270853D01*
Y459351D02*
Y464211D01*
X196431D02*
X201291D01*
X196431Y389789D02*
Y394649D01*
X209001Y204856D02*
Y202476D01*
X211143Y202238D01*
X210905Y202476D01*
X210667Y203190D01*
Y203904D01*
X210905Y204618D01*
X211381Y205095D01*
X212096Y205333D01*
X212572D01*
X213286Y205095D01*
X213762Y204618D01*
X214000Y203904D01*
Y203190D01*
X213762Y202476D01*
X213524Y202238D01*
X213048Y202000D01*
X133001Y337857D02*
Y335476D01*
X135143Y335238D01*
X134905Y335476D01*
X134667Y336190D01*
Y336904D01*
X134905Y337618D01*
X135381Y338095D01*
X136096Y338333D01*
X136572D01*
X137286Y338095D01*
X137762Y337618D01*
X138000Y336904D01*
Y336190D01*
X137762Y335476D01*
X137524Y335238D01*
X137048Y335000D01*
D13*
X429750Y88000D02*
G03*
X429750Y88000I-1250J0D01*
G01*
D14*
X45165Y67501D02*
Y72499D01*
X42666D01*
X41833Y71666D01*
Y68334D01*
X42666Y67501D01*
X45165D01*
X40167Y68334D02*
X39334Y67501D01*
X37668D01*
X36835Y68334D01*
Y69167D01*
X37668Y70000D01*
X38501D01*
X37668D01*
X36835Y70833D01*
Y71666D01*
X37668Y72499D01*
X39334D01*
X40167Y71666D01*
X14835Y118499D02*
Y113501D01*
X17334D01*
X18167Y114334D01*
Y117666D01*
X17334Y118499D01*
X14835D01*
X22332Y113501D02*
Y118499D01*
X19833Y116000D01*
X23165D01*
X193548Y305988D02*
Y300990D01*
X196880D01*
X198546D02*
Y305988D01*
X201045D01*
X201879Y305155D01*
Y303489D01*
X201045Y302656D01*
X198546D01*
X206877Y300990D02*
X203545D01*
X206877Y304322D01*
Y305155D01*
X206044Y305988D01*
X204378D01*
X203545Y305155D01*
X198334Y60084D02*
X197501Y59251D01*
Y57585D01*
X198334Y56752D01*
X201666D01*
X202499Y57585D01*
Y59251D01*
X201666Y60084D01*
X202499Y61750D02*
Y63417D01*
Y62583D01*
X197501D01*
X198334Y61750D01*
Y65916D02*
X197501Y66749D01*
Y68415D01*
X198334Y69248D01*
X199167D01*
X200000Y68415D01*
Y67582D01*
Y68415D01*
X200833Y69248D01*
X201666D01*
X202499Y68415D01*
Y66749D01*
X201666Y65916D01*
X23501Y572835D02*
X27666D01*
X28499Y573668D01*
Y575334D01*
X27666Y576167D01*
X23501D01*
X28499Y581165D02*
Y577833D01*
X25167Y581165D01*
X24334D01*
X23501Y580332D01*
Y578666D01*
X24334Y577833D01*
X261666Y87916D02*
X262499Y88749D01*
Y90415D01*
X261666Y91248D01*
X258334D01*
X257501Y90415D01*
Y88749D01*
X258334Y87916D01*
X257501Y86250D02*
Y84584D01*
Y85416D01*
X262499D01*
X261666Y86250D01*
X262499Y78752D02*
Y82084D01*
X260000D01*
X260833Y80418D01*
Y79585D01*
X260000Y78752D01*
X258334D01*
X257501Y79585D01*
Y81251D01*
X258334Y82084D01*
X454835Y170499D02*
Y166334D01*
X455668Y165501D01*
X457334D01*
X458167Y166334D01*
Y170499D01*
X459833D02*
X463165D01*
Y169666D01*
X459833Y166334D01*
Y165501D01*
X361835Y36499D02*
Y32334D01*
X362668Y31501D01*
X364334D01*
X365167Y32334D01*
Y36499D01*
X370165D02*
X368499Y35666D01*
X366833Y34000D01*
Y32334D01*
X367666Y31501D01*
X369332D01*
X370165Y32334D01*
Y33167D01*
X369332Y34000D01*
X366833D01*
X449835Y263501D02*
Y268499D01*
X452334D01*
X453167Y267666D01*
Y266000D01*
X452334Y265167D01*
X449835D01*
X451501D02*
X453167Y263501D01*
X458165Y268499D02*
X456499Y267666D01*
X454833Y266000D01*
Y264334D01*
X455666Y263501D01*
X457332D01*
X458165Y264334D01*
Y265167D01*
X457332Y266000D01*
X454833D01*
X452167Y234334D02*
Y237666D01*
X451334Y238499D01*
X449668D01*
X448835Y237666D01*
Y234334D01*
X449668Y233501D01*
X451334D01*
X450501Y235167D02*
X452167Y233501D01*
X451334D02*
X452167Y234334D01*
X457165Y233501D02*
X453833D01*
X457165Y236833D01*
Y237666D01*
X456332Y238499D01*
X454666D01*
X453833Y237666D01*
X452000Y156334D02*
Y159666D01*
X451167Y160499D01*
X449501D01*
X448668Y159666D01*
Y156334D01*
X449501Y155501D01*
X451167D01*
X450334Y157167D02*
X452000Y155501D01*
X451167D02*
X452000Y156334D01*
X453666Y155501D02*
X455332D01*
X454499D01*
Y160499D01*
X453666Y159666D01*
X257169Y145499D02*
Y140501D01*
X260501D01*
X262167D02*
Y145499D01*
X264666D01*
X265499Y144666D01*
Y143000D01*
X264666Y142167D01*
X262167D01*
X267165Y140501D02*
X268831D01*
X267998D01*
Y145499D01*
X267165Y144666D01*
X361835Y265499D02*
Y260501D01*
X364334D01*
X365167Y261334D01*
Y264666D01*
X364334Y265499D01*
X361835D01*
X366833Y264666D02*
X367666Y265499D01*
X369332D01*
X370165Y264666D01*
Y263833D01*
X369332Y263000D01*
X370165Y262167D01*
Y261334D01*
X369332Y260501D01*
X367666D01*
X366833Y261334D01*
Y262167D01*
X367666Y263000D01*
X366833Y263833D01*
Y264666D01*
X367666Y263000D02*
X369332D01*
X517668Y243666D02*
X516835Y244499D01*
X515169D01*
X514336Y243666D01*
Y240334D01*
X515169Y239501D01*
X516835D01*
X517668Y240334D01*
X522666Y239501D02*
X519334D01*
X522666Y242833D01*
Y243666D01*
X521833Y244499D01*
X520167D01*
X519334Y243666D01*
X527664Y244499D02*
X524332D01*
Y242000D01*
X525998Y242833D01*
X526831D01*
X527664Y242000D01*
Y240334D01*
X526831Y239501D01*
X525165D01*
X524332Y240334D01*
X469668Y242666D02*
X468835Y243499D01*
X467169D01*
X466335Y242666D01*
Y239334D01*
X467169Y238501D01*
X468835D01*
X469668Y239334D01*
X474666Y238501D02*
X471334D01*
X474666Y241833D01*
Y242666D01*
X473833Y243499D01*
X472167D01*
X471334Y242666D01*
X478831Y238501D02*
Y243499D01*
X476332Y241000D01*
X479664D01*
X487710Y117703D02*
X486877Y118536D01*
X485211D01*
X484378Y117703D01*
Y114371D01*
X485211Y113538D01*
X486877D01*
X487710Y114371D01*
X492709Y113538D02*
X489376D01*
X492709Y116870D01*
Y117703D01*
X491875Y118536D01*
X490209D01*
X489376Y117703D01*
X494375D02*
X495208Y118536D01*
X496874D01*
X497707Y117703D01*
Y116870D01*
X496874Y116037D01*
X496041D01*
X496874D01*
X497707Y115204D01*
Y114371D01*
X496874Y113538D01*
X495208D01*
X494375Y114371D01*
X377169Y340499D02*
Y335501D01*
X379668D01*
X380501Y336334D01*
Y337167D01*
X379668Y338000D01*
X377169D01*
X379668D01*
X380501Y338833D01*
Y339666D01*
X379668Y340499D01*
X377169D01*
X382167D02*
X385499D01*
X383833D01*
Y335501D01*
X387165D02*
X388831D01*
X387998D01*
Y340499D01*
X387165Y339666D01*
X182165Y48501D02*
Y53499D01*
X179666D01*
X178833Y52666D01*
Y49334D01*
X179666Y48501D01*
X182165D01*
X177167D02*
X173835D01*
Y49334D01*
X177167Y52666D01*
Y53499D01*
X472835Y294499D02*
X476167Y289501D01*
Y294499D02*
X472835Y289501D01*
X481165D02*
X477833D01*
X481165Y292833D01*
Y293666D01*
X480332Y294499D01*
X478666D01*
X477833Y293666D01*
X71501Y364025D02*
X76499Y367358D01*
X71501D02*
X76499Y364025D01*
Y369024D02*
Y370690D01*
Y369857D01*
X71501D01*
X72334Y369024D01*
X412169Y546499D02*
Y543167D01*
X413835Y541501D01*
X415501Y543167D01*
Y546499D01*
X417167Y541501D02*
Y546499D01*
X419666D01*
X420499Y545666D01*
Y544000D01*
X419666Y543167D01*
X417167D01*
X418833D02*
X420499Y541501D01*
X422165D02*
X423831D01*
X422998D01*
Y546499D01*
X422165Y545666D01*
X117835Y354499D02*
Y350334D01*
X118668Y349501D01*
X120334D01*
X121167Y350334D01*
Y354499D01*
X126165D02*
X122833D01*
Y352000D01*
X124499Y352833D01*
X125332D01*
X126165Y352000D01*
Y350334D01*
X125332Y349501D01*
X123666D01*
X122833Y350334D01*
X108835Y221499D02*
Y217334D01*
X109668Y216501D01*
X111334D01*
X112167Y217334D01*
Y221499D01*
X116332Y216501D02*
Y221499D01*
X113833Y219000D01*
X117165D01*
X186668Y464499D02*
Y460334D01*
X187501Y459501D01*
X189167D01*
X190000Y460334D01*
Y464499D01*
X191666Y459501D02*
X193332D01*
X192499D01*
Y464499D01*
X191666Y463666D01*
X150501Y694666D02*
X149668Y695499D01*
X148002D01*
X147169Y694666D01*
Y693833D01*
X148002Y693000D01*
X149668D01*
X150501Y692167D01*
Y691334D01*
X149668Y690501D01*
X148002D01*
X147169Y691334D01*
X152167Y695499D02*
Y690501D01*
X153833Y692167D01*
X155499Y690501D01*
Y695499D01*
X157165Y690501D02*
X158831D01*
X157998D01*
Y695499D01*
X157165Y694666D01*
X405248Y230499D02*
Y225501D01*
X402749D01*
X401916Y226334D01*
Y228000D01*
X402749Y228833D01*
X405248D01*
X403582D02*
X401916Y230499D01*
X400250D02*
X398583D01*
X399417D01*
Y225501D01*
X400250Y226334D01*
X396084D02*
X395251Y225501D01*
X393585D01*
X392752Y226334D01*
Y229666D01*
X393585Y230499D01*
X395251D01*
X396084Y229666D01*
Y226334D01*
X54835Y648501D02*
Y653499D01*
X57334D01*
X58167Y652666D01*
Y651000D01*
X57334Y650167D01*
X54835D01*
X56501D02*
X58167Y648501D01*
X59833Y649334D02*
X60666Y648501D01*
X62332D01*
X63165Y649334D01*
Y652666D01*
X62332Y653499D01*
X60666D01*
X59833Y652666D01*
Y651833D01*
X60666Y651000D01*
X63165D01*
X405165Y157499D02*
Y152501D01*
X402666D01*
X401833Y153334D01*
Y155000D01*
X402666Y155833D01*
X405165D01*
X403499D02*
X401833Y157499D01*
X400167Y153334D02*
X399334Y152501D01*
X397668D01*
X396835Y153334D01*
Y154167D01*
X397668Y155000D01*
X396835Y155833D01*
Y156666D01*
X397668Y157499D01*
X399334D01*
X400167Y156666D01*
Y155833D01*
X399334Y155000D01*
X400167Y154167D01*
Y153334D01*
X399334Y155000D02*
X397668D01*
X128835Y610501D02*
Y615499D01*
X131334D01*
X132167Y614666D01*
Y613000D01*
X131334Y612167D01*
X128835D01*
X130501D02*
X132167Y610501D01*
X133833Y615499D02*
X137165D01*
Y614666D01*
X133833Y611334D01*
Y610501D01*
X449835Y190501D02*
Y195499D01*
X452334D01*
X453167Y194666D01*
Y193000D01*
X452334Y192167D01*
X449835D01*
X451501D02*
X453167Y190501D01*
X458165Y195499D02*
X454833D01*
Y193000D01*
X456499Y193833D01*
X457332D01*
X458165Y193000D01*
Y191334D01*
X457332Y190501D01*
X455666D01*
X454833Y191334D01*
X146835Y460501D02*
Y465499D01*
X149334D01*
X150167Y464666D01*
Y463000D01*
X149334Y462167D01*
X146835D01*
X148501D02*
X150167Y460501D01*
X154332D02*
Y465499D01*
X151833Y463000D01*
X155165D01*
X66835Y486501D02*
Y491499D01*
X69334D01*
X70167Y490666D01*
Y489000D01*
X69334Y488167D01*
X66835D01*
X68501D02*
X70167Y486501D01*
X71833Y490666D02*
X72666Y491499D01*
X74332D01*
X75165Y490666D01*
Y489833D01*
X74332Y489000D01*
X73499D01*
X74332D01*
X75165Y488167D01*
Y487334D01*
X74332Y486501D01*
X72666D01*
X71833Y487334D01*
X90835Y608501D02*
Y613499D01*
X93334D01*
X94167Y612666D01*
Y611000D01*
X93334Y610167D01*
X90835D01*
X92501D02*
X94167Y608501D01*
X99165D02*
X95833D01*
X99165Y611833D01*
Y612666D01*
X98332Y613499D01*
X96666D01*
X95833Y612666D01*
X410668Y642501D02*
Y647499D01*
X413167D01*
X414000Y646666D01*
Y645000D01*
X413167Y644167D01*
X410668D01*
X412334D02*
X414000Y642501D01*
X415666D02*
X417332D01*
X416499D01*
Y647499D01*
X415666Y646666D01*
X4499Y558000D02*
Y559666D01*
Y558833D01*
X334D01*
X-499Y559666D01*
Y560499D01*
X334Y561332D01*
X-499Y556334D02*
Y554668D01*
Y555501D01*
X4499D01*
X3666Y556334D01*
X316514Y485566D02*
X313182D01*
Y483067D01*
X314848D01*
X313182D01*
Y480568D01*
X318180Y485566D02*
Y480568D01*
X320680D01*
X321513Y481401D01*
Y482234D01*
X320680Y483067D01*
X318180D01*
X320680D01*
X321513Y483900D01*
Y484733D01*
X320680Y485566D01*
X318180D01*
X323179Y480568D02*
X324845D01*
X324012D01*
Y485566D01*
X323179Y484733D01*
X361835Y205499D02*
Y200501D01*
X364334D01*
X365167Y201334D01*
Y204666D01*
X364334Y205499D01*
X361835D01*
X370165D02*
X368499Y204666D01*
X366833Y203000D01*
Y201334D01*
X367666Y200501D01*
X369332D01*
X370165Y201334D01*
Y202167D01*
X369332Y203000D01*
X366833D01*
X112835Y232499D02*
Y227501D01*
X115334D01*
X116167Y228334D01*
Y231666D01*
X115334Y232499D01*
X112835D01*
X121165D02*
X117833D01*
Y230000D01*
X119499Y230833D01*
X120332D01*
X121165Y230000D01*
Y228334D01*
X120332Y227501D01*
X118666D01*
X117833Y228334D01*
X326499Y79165D02*
X321501D01*
Y76666D01*
X322334Y75833D01*
X325666D01*
X326499Y76666D01*
Y79165D01*
X321501Y70835D02*
Y74167D01*
X324833Y70835D01*
X325666D01*
X326499Y71668D01*
Y73334D01*
X325666Y74167D01*
X181332Y10501D02*
Y15499D01*
X178833D01*
X178000Y14666D01*
Y11334D01*
X178833Y10501D01*
X181332D01*
X176334Y15499D02*
X174668D01*
X175501D01*
Y10501D01*
X176334Y11334D01*
X277668Y295666D02*
X276835Y296499D01*
X275169D01*
X274335Y295666D01*
Y292334D01*
X275169Y291501D01*
X276835D01*
X277668Y292334D01*
X282666Y291501D02*
X279334D01*
X282666Y294833D01*
Y295666D01*
X281833Y296499D01*
X280167D01*
X279334Y295666D01*
X287665Y291501D02*
X284332D01*
X287665Y294833D01*
Y295666D01*
X286831Y296499D01*
X285165D01*
X284332Y295666D01*
X10501Y196666D02*
X9668Y197499D01*
X8002D01*
X7169Y196666D01*
Y193334D01*
X8002Y192501D01*
X9668D01*
X10501Y193334D01*
X15499Y192501D02*
X12167D01*
X15499Y195833D01*
Y196666D01*
X14666Y197499D01*
X13000D01*
X12167Y196666D01*
X17165Y192501D02*
X18831D01*
X17998D01*
Y197499D01*
X17165Y196666D01*
X341668Y264666D02*
X340835Y265499D01*
X339169D01*
X338335Y264666D01*
Y261334D01*
X339169Y260501D01*
X340835D01*
X341668Y261334D01*
X346666Y260501D02*
X343334D01*
X346666Y263833D01*
Y264666D01*
X345833Y265499D01*
X344167D01*
X343334Y264666D01*
X348332D02*
X349165Y265499D01*
X350831D01*
X351665Y264666D01*
Y261334D01*
X350831Y260501D01*
X349165D01*
X348332Y261334D01*
Y264666D01*
X82084Y211666D02*
X81251Y212499D01*
X79585D01*
X78752Y211666D01*
Y208334D01*
X79585Y207501D01*
X81251D01*
X82084Y208334D01*
X83750Y207501D02*
X85416D01*
X84584D01*
Y212499D01*
X83750Y211666D01*
X87916Y208334D02*
X88749Y207501D01*
X90415D01*
X91248Y208334D01*
Y211666D01*
X90415Y212499D01*
X88749D01*
X87916Y211666D01*
Y210833D01*
X88749Y210000D01*
X91248D01*
X400084Y132666D02*
X399251Y133499D01*
X397585D01*
X396752Y132666D01*
Y129334D01*
X397585Y128501D01*
X399251D01*
X400084Y129334D01*
X401750Y128501D02*
X403416D01*
X402584D01*
Y133499D01*
X401750Y132666D01*
X405916D02*
X406749Y133499D01*
X408415D01*
X409248Y132666D01*
Y131833D01*
X408415Y131000D01*
X409248Y130167D01*
Y129334D01*
X408415Y128501D01*
X406749D01*
X405916Y129334D01*
Y130167D01*
X406749Y131000D01*
X405916Y131833D01*
Y132666D01*
X406749Y131000D02*
X408415D01*
X140334Y643084D02*
X139501Y642251D01*
Y640585D01*
X140334Y639752D01*
X143666D01*
X144499Y640585D01*
Y642251D01*
X143666Y643084D01*
X144499Y644750D02*
Y646416D01*
Y645583D01*
X139501D01*
X140334Y644750D01*
X139501Y648916D02*
Y652248D01*
X140334D01*
X143666Y648916D01*
X144499D01*
X271084Y202666D02*
X270251Y203499D01*
X268585D01*
X267752Y202666D01*
Y199334D01*
X268585Y198501D01*
X270251D01*
X271084Y199334D01*
X272750Y198501D02*
X274417D01*
X273584D01*
Y203499D01*
X272750Y202666D01*
X280248Y203499D02*
X278582Y202666D01*
X276916Y201000D01*
Y199334D01*
X277749Y198501D01*
X279415D01*
X280248Y199334D01*
Y200167D01*
X279415Y201000D01*
X276916D01*
X343084Y204666D02*
X342251Y205499D01*
X340585D01*
X339752Y204666D01*
Y201334D01*
X340585Y200501D01*
X342251D01*
X343084Y201334D01*
X344750Y200501D02*
X346417D01*
X345583D01*
Y205499D01*
X344750Y204666D01*
X351415Y200501D02*
Y205499D01*
X348916Y203000D01*
X352248D01*
X401084Y117666D02*
X400251Y118499D01*
X398585D01*
X397752Y117666D01*
Y114334D01*
X398585Y113501D01*
X400251D01*
X401084Y114334D01*
X402750Y113501D02*
X404417D01*
X403583D01*
Y118499D01*
X402750Y117666D01*
X410248Y113501D02*
X406916D01*
X410248Y116833D01*
Y117666D01*
X409415Y118499D01*
X407749D01*
X406916Y117666D01*
X315752Y454761D02*
X314919Y455594D01*
X313253D01*
X312420Y454761D01*
Y451429D01*
X313253Y450596D01*
X314919D01*
X315752Y451429D01*
X317418Y450596D02*
X319084D01*
X318251D01*
Y455594D01*
X317418Y454761D01*
X321584Y450596D02*
X323250D01*
X322417D01*
Y455594D01*
X321584Y454761D01*
X295940D02*
X295107Y455594D01*
X293441D01*
X292608Y454761D01*
Y451429D01*
X293441Y450596D01*
X295107D01*
X295940Y451429D01*
X297606Y450596D02*
X299272D01*
X298439D01*
Y455594D01*
X297606Y454761D01*
X301772D02*
X302605Y455594D01*
X304271D01*
X305104Y454761D01*
Y451429D01*
X304271Y450596D01*
X302605D01*
X301772Y451429D01*
Y454761D01*
X454167Y54666D02*
X453334Y55499D01*
X451668D01*
X450835Y54666D01*
Y51334D01*
X451668Y50501D01*
X453334D01*
X454167Y51334D01*
X455833D02*
X456666Y50501D01*
X458332D01*
X459165Y51334D01*
Y54666D01*
X458332Y55499D01*
X456666D01*
X455833Y54666D01*
Y53833D01*
X456666Y53000D01*
X459165D01*
X150167Y389666D02*
X149334Y390499D01*
X147668D01*
X146835Y389666D01*
Y386334D01*
X147668Y385501D01*
X149334D01*
X150167Y386334D01*
X151833Y389666D02*
X152666Y390499D01*
X154332D01*
X155165Y389666D01*
Y388833D01*
X154332Y388000D01*
X155165Y387167D01*
Y386334D01*
X154332Y385501D01*
X152666D01*
X151833Y386334D01*
Y387167D01*
X152666Y388000D01*
X151833Y388833D01*
Y389666D01*
X152666Y388000D02*
X154332D01*
X150167Y426666D02*
X149334Y427499D01*
X147668D01*
X146835Y426666D01*
Y423334D01*
X147668Y422501D01*
X149334D01*
X150167Y423334D01*
X151833Y427499D02*
X155165D01*
Y426666D01*
X151833Y423334D01*
Y422501D01*
X295432Y491845D02*
X294599Y492678D01*
X292933D01*
X292100Y491845D01*
Y488513D01*
X292933Y487680D01*
X294599D01*
X295432Y488513D01*
X300431Y492678D02*
X298764Y491845D01*
X297098Y490179D01*
Y488513D01*
X297931Y487680D01*
X299597D01*
X300431Y488513D01*
Y489346D01*
X299597Y490179D01*
X297098D01*
X205167Y507666D02*
X204334Y508499D01*
X202668D01*
X201835Y507666D01*
Y504334D01*
X202668Y503501D01*
X204334D01*
X205167Y504334D01*
X210165Y508499D02*
X206833D01*
Y506000D01*
X208499Y506833D01*
X209332D01*
X210165Y506000D01*
Y504334D01*
X209332Y503501D01*
X207666D01*
X206833Y504334D01*
X440167Y54666D02*
X439334Y55499D01*
X437668D01*
X436835Y54666D01*
Y51334D01*
X437668Y50501D01*
X439334D01*
X440167Y51334D01*
X444332Y50501D02*
Y55499D01*
X441833Y53000D01*
X445165D01*
X122334Y445167D02*
X121501Y444334D01*
Y442668D01*
X122334Y441835D01*
X125666D01*
X126499Y442668D01*
Y444334D01*
X125666Y445167D01*
X122334Y446833D02*
X121501Y447666D01*
Y449332D01*
X122334Y450165D01*
X123167D01*
X124000Y449332D01*
Y448499D01*
Y449332D01*
X124833Y450165D01*
X125666D01*
X126499Y449332D01*
Y447666D01*
X125666Y446833D01*
X123334Y366167D02*
X122501Y365334D01*
Y363668D01*
X123334Y362835D01*
X126666D01*
X127499Y363668D01*
Y365334D01*
X126666Y366167D01*
X127499Y371165D02*
Y367833D01*
X124167Y371165D01*
X123334D01*
X122501Y370332D01*
Y368666D01*
X123334Y367833D01*
X6000Y612666D02*
X5167Y613499D01*
X3501D01*
X2668Y612666D01*
Y609334D01*
X3501Y608501D01*
X5167D01*
X6000Y609334D01*
X7666Y608501D02*
X9332D01*
X8499D01*
Y613499D01*
X7666Y612666D01*
D15*
X92200Y2100D02*
D03*
X143000D02*
D03*
D16*
X215693Y196291D02*
D03*
Y179273D02*
D03*
X215692Y162256D02*
D03*
X215677Y145239D02*
D03*
X215683Y128221D02*
D03*
X139675Y260218D02*
D03*
Y277236D02*
D03*
Y294254D02*
D03*
Y311272D02*
D03*
Y328290D02*
D03*
D17*
X256048Y62603D02*
D03*
X217948D02*
D03*
X286951Y244399D02*
D03*
X325051D02*
D03*
D18*
X169000Y242999D02*
D03*
Y218999D02*
D03*
X314994Y64997D02*
D03*
X315005Y41000D02*
D03*
D19*
X58597Y186051D02*
D03*
Y147951D02*
D03*
X316601Y189052D02*
D03*
Y150952D02*
D03*
D20*
X114003Y677996D02*
D03*
M02*
