G04*
G04 #@! TF.GenerationSoftware,Altium Limited,Altium Designer,22.3.1 (43)*
G04*
G04 Layer_Color=8388736*
%FSLAX44Y44*%
%MOMM*%
G71*
G04*
G04 #@! TF.SameCoordinates,0660A848-1A26-4927-BFA5-E7A76C088184*
G04*
G04*
G04 #@! TF.FilePolarity,Negative*
G04*
G01*
G75*
%ADD36R,0.3048X1.1938*%
%ADD37R,1.1938X0.3048*%
G04:AMPARAMS|DCode=49|XSize=1.15mm|YSize=1.35mm|CornerRadius=0.325mm|HoleSize=0mm|Usage=FLASHONLY|Rotation=270.000|XOffset=0mm|YOffset=0mm|HoleType=Round|Shape=RoundedRectangle|*
%AMROUNDEDRECTD49*
21,1,1.1500,0.7000,0,0,270.0*
21,1,0.5000,1.3500,0,0,270.0*
1,1,0.6500,-0.3500,-0.2500*
1,1,0.6500,-0.3500,0.2500*
1,1,0.6500,0.3500,0.2500*
1,1,0.6500,0.3500,-0.2500*
%
%ADD49ROUNDEDRECTD49*%
%ADD50R,1.3500X1.1500*%
%ADD51R,1.4000X1.8000*%
G04:AMPARAMS|DCode=52|XSize=1.8mm|YSize=2.4mm|CornerRadius=0.5mm|HoleSize=0mm|Usage=FLASHONLY|Rotation=0.000|XOffset=0mm|YOffset=0mm|HoleType=Round|Shape=RoundedRectangle|*
%AMROUNDEDRECTD52*
21,1,1.8000,1.4000,0,0,0.0*
21,1,0.8000,2.4000,0,0,0.0*
1,1,1.0000,0.4000,-0.7000*
1,1,1.0000,-0.4000,-0.7000*
1,1,1.0000,-0.4000,0.7000*
1,1,1.0000,0.4000,0.7000*
%
%ADD52ROUNDEDRECTD52*%
G04:AMPARAMS|DCode=53|XSize=1.15mm|YSize=1.35mm|CornerRadius=0.325mm|HoleSize=0mm|Usage=FLASHONLY|Rotation=0.000|XOffset=0mm|YOffset=0mm|HoleType=Round|Shape=RoundedRectangle|*
%AMROUNDEDRECTD53*
21,1,1.1500,0.7000,0,0,0.0*
21,1,0.5000,1.3500,0,0,0.0*
1,1,0.6500,0.2500,-0.3500*
1,1,0.6500,-0.2500,-0.3500*
1,1,0.6500,-0.2500,0.3500*
1,1,0.6500,0.2500,0.3500*
%
%ADD53ROUNDEDRECTD53*%
%ADD54O,1.7032X3.2032*%
G04:AMPARAMS|DCode=55|XSize=0.9mm|YSize=1.4mm|CornerRadius=0.275mm|HoleSize=0mm|Usage=FLASHONLY|Rotation=0.000|XOffset=0mm|YOffset=0mm|HoleType=Round|Shape=RoundedRectangle|*
%AMROUNDEDRECTD55*
21,1,0.9000,0.8500,0,0,0.0*
21,1,0.3500,1.4000,0,0,0.0*
1,1,0.5500,0.1750,-0.4250*
1,1,0.5500,-0.1750,-0.4250*
1,1,0.5500,-0.1750,0.4250*
1,1,0.5500,0.1750,0.4250*
%
%ADD55ROUNDEDRECTD55*%
%ADD56R,2.2032X6.2032*%
%ADD57R,11.2032X9.2032*%
%ADD58O,3.8032X1.4032*%
%ADD59R,1.8032X2.8032*%
%ADD60R,2.4032X1.8032*%
G04:AMPARAMS|DCode=61|XSize=1.8032mm|YSize=2.4032mm|CornerRadius=0.5016mm|HoleSize=0mm|Usage=FLASHONLY|Rotation=90.000|XOffset=0mm|YOffset=0mm|HoleType=Round|Shape=RoundedRectangle|*
%AMROUNDEDRECTD61*
21,1,1.8032,1.4000,0,0,90.0*
21,1,0.8000,2.4032,0,0,90.0*
1,1,1.0032,0.7000,0.4000*
1,1,1.0032,0.7000,-0.4000*
1,1,1.0032,-0.7000,-0.4000*
1,1,1.0032,-0.7000,0.4000*
%
%ADD61ROUNDEDRECTD61*%
%ADD62R,2.8032X1.8032*%
G04:AMPARAMS|DCode=63|XSize=0.95mm|YSize=0.95mm|CornerRadius=0.275mm|HoleSize=0mm|Usage=FLASHONLY|Rotation=180.000|XOffset=0mm|YOffset=0mm|HoleType=Round|Shape=RoundedRectangle|*
%AMROUNDEDRECTD63*
21,1,0.9500,0.4000,0,0,180.0*
21,1,0.4000,0.9500,0,0,180.0*
1,1,0.5500,-0.2000,0.2000*
1,1,0.5500,0.2000,0.2000*
1,1,0.5500,0.2000,-0.2000*
1,1,0.5500,-0.2000,-0.2000*
%
%ADD63ROUNDEDRECTD63*%
%ADD64O,0.8032X2.2032*%
%ADD65R,3.4032X2.4032*%
%ADD66O,1.2032X2.4032*%
G04:AMPARAMS|DCode=67|XSize=0.95mm|YSize=0.95mm|CornerRadius=0.275mm|HoleSize=0mm|Usage=FLASHONLY|Rotation=90.000|XOffset=0mm|YOffset=0mm|HoleType=Round|Shape=RoundedRectangle|*
%AMROUNDEDRECTD67*
21,1,0.9500,0.4000,0,0,90.0*
21,1,0.4000,0.9500,0,0,90.0*
1,1,0.5500,0.2000,0.2000*
1,1,0.5500,0.2000,-0.2000*
1,1,0.5500,-0.2000,-0.2000*
1,1,0.5500,-0.2000,0.2000*
%
%ADD67ROUNDEDRECTD67*%
G04:AMPARAMS|DCode=68|XSize=2.6032mm|YSize=7.2032mm|CornerRadius=0.7016mm|HoleSize=0mm|Usage=FLASHONLY|Rotation=0.000|XOffset=0mm|YOffset=0mm|HoleType=Round|Shape=RoundedRectangle|*
%AMROUNDEDRECTD68*
21,1,2.6032,5.8000,0,0,0.0*
21,1,1.2000,7.2032,0,0,0.0*
1,1,1.4032,0.6000,-2.9000*
1,1,1.4032,-0.6000,-2.9000*
1,1,1.4032,-0.6000,2.9000*
1,1,1.4032,0.6000,2.9000*
%
%ADD68ROUNDEDRECTD68*%
%ADD69O,2.4000X1.8000*%
%ADD70R,3.2032X3.2032*%
%ADD71R,3.2032X4.7032*%
%ADD72C,2.2032*%
%ADD73C,6.2000*%
%ADD74C,1.6032*%
%ADD75O,1.1000X1.4000*%
%ADD76C,1.7032*%
%ADD77C,1.2032*%
%ADD78C,1.8032*%
%ADD79C,1.6000*%
%ADD80C,1.0032*%
D36*
X206142Y384500D02*
D03*
X211142D02*
D03*
X216142D02*
D03*
X221142D02*
D03*
X226142D02*
D03*
X231142D02*
D03*
X236142D02*
D03*
X241142D02*
D03*
X246142D02*
D03*
X251142D02*
D03*
X256142D02*
D03*
X261142D02*
D03*
Y469500D02*
D03*
X256142D02*
D03*
X251142D02*
D03*
X246142D02*
D03*
X241142D02*
D03*
X236142D02*
D03*
X231142D02*
D03*
X226142D02*
D03*
X221142D02*
D03*
X216142D02*
D03*
X211142D02*
D03*
X206142D02*
D03*
D37*
X276142Y399500D02*
D03*
Y404500D02*
D03*
Y409500D02*
D03*
Y414500D02*
D03*
Y419500D02*
D03*
Y424500D02*
D03*
Y429500D02*
D03*
Y434500D02*
D03*
Y439500D02*
D03*
Y444500D02*
D03*
Y449500D02*
D03*
Y454500D02*
D03*
X191142D02*
D03*
Y449500D02*
D03*
Y444500D02*
D03*
Y439500D02*
D03*
Y434500D02*
D03*
Y429500D02*
D03*
Y424500D02*
D03*
Y419500D02*
D03*
Y414500D02*
D03*
Y409500D02*
D03*
Y404500D02*
D03*
Y399500D02*
D03*
D49*
X40000Y83000D02*
D03*
X18000Y103000D02*
D03*
X237000Y555000D02*
D03*
Y575000D02*
D03*
X211000Y555000D02*
D03*
Y575000D02*
D03*
X454000Y118000D02*
D03*
Y138000D02*
D03*
X166642Y439000D02*
D03*
Y459000D02*
D03*
X179000Y26000D02*
D03*
X130000Y461000D02*
D03*
Y481000D02*
D03*
Y401000D02*
D03*
Y381000D02*
D03*
X199000Y26000D02*
D03*
Y46000D02*
D03*
X179000Y65000D02*
D03*
X522000Y229000D02*
D03*
Y209000D02*
D03*
X474000Y228000D02*
D03*
Y208000D02*
D03*
X366000Y190000D02*
D03*
X346000Y170000D02*
D03*
Y190000D02*
D03*
X366000Y230000D02*
D03*
X346000Y250000D02*
D03*
Y230000D02*
D03*
X167000Y364000D02*
D03*
Y384000D02*
D03*
X166642Y401000D02*
D03*
Y421000D02*
D03*
X400000Y260000D02*
D03*
Y240000D02*
D03*
X402000Y187000D02*
D03*
Y167000D02*
D03*
X414000Y613000D02*
D03*
Y633000D02*
D03*
X320000Y416000D02*
D03*
Y436000D02*
D03*
X300000Y416000D02*
D03*
Y436000D02*
D03*
X299642Y473000D02*
D03*
Y453000D02*
D03*
D50*
X40000Y103000D02*
D03*
X18000Y83000D02*
D03*
X179000Y46000D02*
D03*
Y85000D02*
D03*
X366000Y170000D02*
D03*
Y250000D02*
D03*
D51*
X46000Y397000D02*
D03*
D52*
Y369000D02*
D03*
D53*
X472000Y98000D02*
D03*
X452000D02*
D03*
X440000Y266000D02*
D03*
X420000D02*
D03*
X68000Y209000D02*
D03*
X48000D02*
D03*
X208642Y493000D02*
D03*
X228642D02*
D03*
X420000Y192000D02*
D03*
X440000D02*
D03*
X57000Y489000D02*
D03*
X37000D02*
D03*
X39000Y617000D02*
D03*
X19000D02*
D03*
X93000Y646000D02*
D03*
X73000D02*
D03*
X61000Y617000D02*
D03*
X81000D02*
D03*
X130000Y646000D02*
D03*
X110000D02*
D03*
X110000Y627000D02*
D03*
X130000D02*
D03*
X491000Y98000D02*
D03*
X511000D02*
D03*
D54*
X94000Y487000D02*
D03*
Y375000D02*
D03*
D55*
X440000Y247000D02*
D03*
X420000D02*
D03*
X430000Y221000D02*
D03*
Y144000D02*
D03*
X420000Y170000D02*
D03*
X440000D02*
D03*
D56*
X267000Y259000D02*
D03*
X203000D02*
D03*
X280000Y107000D02*
D03*
X344000D02*
D03*
D57*
X141000Y162000D02*
D03*
X65000Y294000D02*
D03*
D58*
X244000Y196036D02*
D03*
Y179018D02*
D03*
Y162000D02*
D03*
Y144982D02*
D03*
Y127964D02*
D03*
X168000Y259964D02*
D03*
Y276982D02*
D03*
Y294000D02*
D03*
Y311018D02*
D03*
Y328036D02*
D03*
D59*
X237000Y27000D02*
D03*
Y67000D02*
D03*
X306000Y280000D02*
D03*
Y240000D02*
D03*
D60*
X135000Y231000D02*
D03*
X281000Y53000D02*
D03*
D61*
X179000Y231000D02*
D03*
X325000Y53000D02*
D03*
D62*
X63000Y167000D02*
D03*
X23000D02*
D03*
X321000Y170000D02*
D03*
X281000D02*
D03*
D63*
X455000Y28000D02*
D03*
Y42000D02*
D03*
X440000Y28000D02*
D03*
Y42000D02*
D03*
X318642Y467000D02*
D03*
Y453000D02*
D03*
D64*
X513050Y178000D02*
D03*
X500350D02*
D03*
X487650D02*
D03*
X474950D02*
D03*
X513050Y122000D02*
D03*
X500350D02*
D03*
X487650D02*
D03*
X474950D02*
D03*
X77050Y591000D02*
D03*
X38950Y515000D02*
D03*
X77050D02*
D03*
X51650D02*
D03*
X64350D02*
D03*
X51650Y591000D02*
D03*
X38950D02*
D03*
X64350D02*
D03*
D65*
X395000Y29000D02*
D03*
D66*
X372000Y91000D02*
D03*
X395000D02*
D03*
X418000D02*
D03*
D67*
X374000Y115000D02*
D03*
X388000D02*
D03*
X374000Y130000D02*
D03*
X388000D02*
D03*
D68*
X498112Y263626D02*
D03*
D69*
X149000Y678000D02*
D03*
X79000D02*
D03*
D70*
X467000Y502000D02*
D03*
D71*
Y337000D02*
D03*
D72*
X143400Y50000D02*
D03*
X92600D02*
D03*
D73*
X515000Y35000D02*
D03*
X35000D02*
D03*
X515000Y665000D02*
D03*
X35000D02*
D03*
D74*
X18000Y445100D02*
D03*
Y419700D02*
D03*
Y394300D02*
D03*
Y368900D02*
D03*
Y560100D02*
D03*
Y534700D02*
D03*
Y509300D02*
D03*
Y483900D02*
D03*
D75*
X492000Y206000D02*
D03*
X504000D02*
D03*
D76*
X467000Y378000D02*
D03*
D77*
Y454000D02*
D03*
D78*
X457000Y642000D02*
D03*
Y592000D02*
D03*
D79*
X160700Y530000D02*
D03*
X186100D02*
D03*
X211500D02*
D03*
X236900D02*
D03*
X262300D02*
D03*
X287700D02*
D03*
X313100D02*
D03*
X338500D02*
D03*
X363900D02*
D03*
X389300D02*
D03*
D80*
X531971Y51971D02*
D03*
X498030Y18030D02*
D03*
X539000Y35000D02*
D03*
X491000D02*
D03*
X531971Y18030D02*
D03*
X498030Y51971D02*
D03*
X515000Y59000D02*
D03*
Y11000D02*
D03*
X51971Y51971D02*
D03*
X18030Y18030D02*
D03*
X59000Y35000D02*
D03*
X11000D02*
D03*
X51971Y18030D02*
D03*
X18030Y51971D02*
D03*
X35000Y59000D02*
D03*
Y11000D02*
D03*
X531971Y681971D02*
D03*
X498030Y648029D02*
D03*
X539000Y665000D02*
D03*
X491000D02*
D03*
X531971Y648029D02*
D03*
X498030Y681971D02*
D03*
X515000Y689000D02*
D03*
Y641000D02*
D03*
X51971Y681971D02*
D03*
X18030Y648029D02*
D03*
X59000Y665000D02*
D03*
X11000D02*
D03*
X51971Y648029D02*
D03*
X18030Y681971D02*
D03*
X35000Y689000D02*
D03*
Y641000D02*
D03*
M02*
