G04*
G04 #@! TF.GenerationSoftware,Altium Limited,Altium Designer,22.3.1 (43)*
G04*
G04 Layer_Color=8388736*
%FSLAX44Y44*%
%MOMM*%
G71*
G04*
G04 #@! TF.SameCoordinates,ED8E76AF-2C1D-4F3D-8887-468E79F1A133*
G04*
G04*
G04 #@! TF.FilePolarity,Negative*
G04*
G01*
G75*
%ADD34R,0.3048X1.1938*%
%ADD35R,1.1938X0.3048*%
%ADD44O,1.2032X2.4032*%
%ADD45R,3.4032X2.4032*%
G04:AMPARAMS|DCode=46|XSize=1.15mm|YSize=1.35mm|CornerRadius=0.325mm|HoleSize=0mm|Usage=FLASHONLY|Rotation=0.000|XOffset=0mm|YOffset=0mm|HoleType=Round|Shape=RoundedRectangle|*
%AMROUNDEDRECTD46*
21,1,1.1500,0.7000,0,0,0.0*
21,1,0.5000,1.3500,0,0,0.0*
1,1,0.6500,0.2500,-0.3500*
1,1,0.6500,-0.2500,-0.3500*
1,1,0.6500,-0.2500,0.3500*
1,1,0.6500,0.2500,0.3500*
%
%ADD46ROUNDEDRECTD46*%
G04:AMPARAMS|DCode=47|XSize=1.15mm|YSize=1.35mm|CornerRadius=0.325mm|HoleSize=0mm|Usage=FLASHONLY|Rotation=90.000|XOffset=0mm|YOffset=0mm|HoleType=Round|Shape=RoundedRectangle|*
%AMROUNDEDRECTD47*
21,1,1.1500,0.7000,0,0,90.0*
21,1,0.5000,1.3500,0,0,90.0*
1,1,0.6500,0.3500,0.2500*
1,1,0.6500,0.3500,-0.2500*
1,1,0.6500,-0.3500,-0.2500*
1,1,0.6500,-0.3500,0.2500*
%
%ADD47ROUNDEDRECTD47*%
%ADD48R,1.3500X1.1500*%
%ADD49O,1.7032X3.2032*%
G04:AMPARAMS|DCode=50|XSize=0.9mm|YSize=1.4mm|CornerRadius=0.275mm|HoleSize=0mm|Usage=FLASHONLY|Rotation=0.000|XOffset=0mm|YOffset=0mm|HoleType=Round|Shape=RoundedRectangle|*
%AMROUNDEDRECTD50*
21,1,0.9000,0.8500,0,0,0.0*
21,1,0.3500,1.4000,0,0,0.0*
1,1,0.5500,0.1750,-0.4250*
1,1,0.5500,-0.1750,-0.4250*
1,1,0.5500,-0.1750,0.4250*
1,1,0.5500,0.1750,0.4250*
%
%ADD50ROUNDEDRECTD50*%
%ADD51R,2.2032X6.2032*%
%ADD52R,11.2032X9.2032*%
%ADD53O,3.8032X1.4032*%
%ADD54R,1.8032X2.8032*%
%ADD55R,2.4032X1.8032*%
G04:AMPARAMS|DCode=56|XSize=1.8032mm|YSize=2.4032mm|CornerRadius=0.5016mm|HoleSize=0mm|Usage=FLASHONLY|Rotation=90.000|XOffset=0mm|YOffset=0mm|HoleType=Round|Shape=RoundedRectangle|*
%AMROUNDEDRECTD56*
21,1,1.8032,1.4000,0,0,90.0*
21,1,0.8000,2.4032,0,0,90.0*
1,1,1.0032,0.7000,0.4000*
1,1,1.0032,0.7000,-0.4000*
1,1,1.0032,-0.7000,-0.4000*
1,1,1.0032,-0.7000,0.4000*
%
%ADD56ROUNDEDRECTD56*%
%ADD57R,2.8032X1.8032*%
%ADD58O,0.8032X2.2032*%
G04:AMPARAMS|DCode=59|XSize=2.6032mm|YSize=7.2032mm|CornerRadius=0.7016mm|HoleSize=0mm|Usage=FLASHONLY|Rotation=0.000|XOffset=0mm|YOffset=0mm|HoleType=Round|Shape=RoundedRectangle|*
%AMROUNDEDRECTD59*
21,1,2.6032,5.8000,0,0,0.0*
21,1,1.2000,7.2032,0,0,0.0*
1,1,1.4032,0.6000,-2.9000*
1,1,1.4032,-0.6000,-2.9000*
1,1,1.4032,-0.6000,2.9000*
1,1,1.4032,0.6000,2.9000*
%
%ADD59ROUNDEDRECTD59*%
%ADD60O,2.4000X1.8000*%
%ADD61R,3.2032X3.2032*%
%ADD62R,3.2032X4.7032*%
%ADD63C,2.2032*%
%ADD64C,6.2000*%
%ADD65C,1.6032*%
%ADD66O,1.1000X1.4000*%
%ADD67C,1.7032*%
%ADD68C,1.2032*%
%ADD69C,1.8032*%
%ADD70C,1.6000*%
%ADD71C,1.0032*%
D34*
X206142Y384500D02*
D03*
X211142D02*
D03*
X216142D02*
D03*
X221142D02*
D03*
X226142D02*
D03*
X231142D02*
D03*
X236142D02*
D03*
X241142D02*
D03*
X246142D02*
D03*
X251142D02*
D03*
X256142D02*
D03*
X261142D02*
D03*
Y469500D02*
D03*
X256142D02*
D03*
X251142D02*
D03*
X246142D02*
D03*
X241142D02*
D03*
X236142D02*
D03*
X231142D02*
D03*
X226142D02*
D03*
X221142D02*
D03*
X216142D02*
D03*
X211142D02*
D03*
X206142D02*
D03*
D35*
X276142Y399500D02*
D03*
Y404500D02*
D03*
Y409500D02*
D03*
Y414500D02*
D03*
Y419500D02*
D03*
Y424500D02*
D03*
Y429500D02*
D03*
Y434500D02*
D03*
Y439500D02*
D03*
Y444500D02*
D03*
Y449500D02*
D03*
Y454500D02*
D03*
X191142D02*
D03*
Y449500D02*
D03*
Y444500D02*
D03*
Y439500D02*
D03*
Y434500D02*
D03*
Y429500D02*
D03*
Y424500D02*
D03*
Y419500D02*
D03*
Y414500D02*
D03*
Y409500D02*
D03*
Y404500D02*
D03*
Y399500D02*
D03*
D44*
X418000Y91000D02*
D03*
X395000D02*
D03*
X372000D02*
D03*
D45*
X395000Y29000D02*
D03*
D46*
X394000Y133000D02*
D03*
X374000D02*
D03*
X394000Y115000D02*
D03*
X374000D02*
D03*
X472000Y98000D02*
D03*
X452000D02*
D03*
X440000Y266000D02*
D03*
X420000D02*
D03*
X68000Y209000D02*
D03*
X48000D02*
D03*
X208642Y493000D02*
D03*
X228642D02*
D03*
X420000Y192000D02*
D03*
X440000D02*
D03*
X57000Y489000D02*
D03*
X37000D02*
D03*
X39000Y617000D02*
D03*
X19000D02*
D03*
X93000Y646000D02*
D03*
X73000D02*
D03*
X61000Y617000D02*
D03*
X81000D02*
D03*
X130000Y646000D02*
D03*
X110000D02*
D03*
X110000Y627000D02*
D03*
X130000D02*
D03*
X491000Y98000D02*
D03*
X511000D02*
D03*
D47*
X456000Y48000D02*
D03*
Y28000D02*
D03*
X438000Y48000D02*
D03*
Y28000D02*
D03*
X319000Y473000D02*
D03*
Y453000D02*
D03*
X46000Y371000D02*
D03*
X167000Y384000D02*
D03*
Y364000D02*
D03*
X40000Y83000D02*
D03*
X18000Y103000D02*
D03*
X237000Y555000D02*
D03*
Y575000D02*
D03*
X211000Y555000D02*
D03*
Y575000D02*
D03*
X454000Y118000D02*
D03*
Y138000D02*
D03*
X166642Y439000D02*
D03*
Y459000D02*
D03*
X179000Y26000D02*
D03*
X130000Y461000D02*
D03*
Y481000D02*
D03*
Y401000D02*
D03*
Y381000D02*
D03*
X199000Y26000D02*
D03*
Y46000D02*
D03*
X179000Y65000D02*
D03*
X522000Y229000D02*
D03*
Y209000D02*
D03*
X474000Y228000D02*
D03*
Y208000D02*
D03*
X366000Y190000D02*
D03*
X346000Y170000D02*
D03*
Y190000D02*
D03*
X366000Y230000D02*
D03*
X346000Y250000D02*
D03*
Y230000D02*
D03*
X166642Y401000D02*
D03*
Y421000D02*
D03*
X400000Y260000D02*
D03*
Y240000D02*
D03*
X402000Y187000D02*
D03*
Y167000D02*
D03*
X414000Y613000D02*
D03*
Y633000D02*
D03*
X319000Y416000D02*
D03*
Y436000D02*
D03*
X300000Y416000D02*
D03*
Y436000D02*
D03*
X299642Y473000D02*
D03*
Y453000D02*
D03*
D48*
X46000Y391000D02*
D03*
X40000Y103000D02*
D03*
X18000Y83000D02*
D03*
X179000Y46000D02*
D03*
Y85000D02*
D03*
X366000Y170000D02*
D03*
Y250000D02*
D03*
D49*
X94000Y487000D02*
D03*
Y375000D02*
D03*
D50*
X440000Y247000D02*
D03*
X420000D02*
D03*
X430000Y221000D02*
D03*
Y144000D02*
D03*
X420000Y170000D02*
D03*
X440000D02*
D03*
D51*
X267000Y259000D02*
D03*
X203000D02*
D03*
X280000Y107000D02*
D03*
X344000D02*
D03*
D52*
X141000Y162000D02*
D03*
X65000Y294000D02*
D03*
D53*
X244000Y196036D02*
D03*
Y179018D02*
D03*
Y162000D02*
D03*
Y144982D02*
D03*
Y127964D02*
D03*
X168000Y259964D02*
D03*
Y276982D02*
D03*
Y294000D02*
D03*
Y311018D02*
D03*
Y328036D02*
D03*
D54*
X237000Y27000D02*
D03*
Y67000D02*
D03*
X306000Y280000D02*
D03*
Y240000D02*
D03*
D55*
X135000Y231000D02*
D03*
X281000Y53000D02*
D03*
D56*
X179000Y231000D02*
D03*
X325000Y53000D02*
D03*
D57*
X63000Y167000D02*
D03*
X23000D02*
D03*
X321000Y170000D02*
D03*
X281000D02*
D03*
D58*
X513050Y178000D02*
D03*
X500350D02*
D03*
X487650D02*
D03*
X474950D02*
D03*
X513050Y122000D02*
D03*
X500350D02*
D03*
X487650D02*
D03*
X474950D02*
D03*
X77050Y591000D02*
D03*
X38950Y515000D02*
D03*
X77050D02*
D03*
X51650D02*
D03*
X64350D02*
D03*
X51650Y591000D02*
D03*
X38950D02*
D03*
X64350D02*
D03*
D59*
X498112Y263626D02*
D03*
D60*
X149000Y678000D02*
D03*
X79000D02*
D03*
D61*
X467000Y502000D02*
D03*
D62*
Y337000D02*
D03*
D63*
X92600Y42000D02*
D03*
X143400D02*
D03*
D64*
X515000Y35000D02*
D03*
X35000D02*
D03*
X515000Y665000D02*
D03*
X35000D02*
D03*
D65*
X18000Y445100D02*
D03*
Y419700D02*
D03*
Y394300D02*
D03*
Y368900D02*
D03*
Y560100D02*
D03*
Y534700D02*
D03*
Y509300D02*
D03*
Y483900D02*
D03*
D66*
X492000Y206000D02*
D03*
X504000D02*
D03*
D67*
X467000Y378000D02*
D03*
D68*
Y454000D02*
D03*
D69*
X457000Y642000D02*
D03*
Y592000D02*
D03*
D70*
X160700Y530000D02*
D03*
X186100D02*
D03*
X211500D02*
D03*
X236900D02*
D03*
X262300D02*
D03*
X287700D02*
D03*
X313100D02*
D03*
X338500D02*
D03*
X363900D02*
D03*
X389300D02*
D03*
D71*
X531971Y51971D02*
D03*
X498030Y18030D02*
D03*
X539000Y35000D02*
D03*
X491000D02*
D03*
X531971Y18030D02*
D03*
X498030Y51971D02*
D03*
X515000Y59000D02*
D03*
Y11000D02*
D03*
X51971Y51971D02*
D03*
X18030Y18030D02*
D03*
X59000Y35000D02*
D03*
X11000D02*
D03*
X51971Y18030D02*
D03*
X18030Y51971D02*
D03*
X35000Y59000D02*
D03*
Y11000D02*
D03*
X531971Y681971D02*
D03*
X498030Y648029D02*
D03*
X539000Y665000D02*
D03*
X491000D02*
D03*
X531971Y648029D02*
D03*
X498030Y681971D02*
D03*
X515000Y689000D02*
D03*
Y641000D02*
D03*
X51971Y681971D02*
D03*
X18030Y648029D02*
D03*
X59000Y665000D02*
D03*
X11000D02*
D03*
X51971Y648029D02*
D03*
X18030Y681971D02*
D03*
X35000Y689000D02*
D03*
Y641000D02*
D03*
M02*
